%TF.GenerationSoftware,KiCad,Pcbnew,9.0.6*%
%TF.CreationDate,2025-11-29T12:35:40-05:00*%
%TF.ProjectId,MoistureSensor1,4d6f6973-7475-4726-9553-656e736f7231,1.0.0*%
%TF.SameCoordinates,Original*%
%TF.FileFunction,Soldermask,Top*%
%TF.FilePolarity,Negative*%
%FSLAX46Y46*%
G04 Gerber Fmt 4.6, Leading zero omitted, Abs format (unit mm)*
G04 Created by KiCad (PCBNEW 9.0.6) date 2025-11-29 12:35:40*
%MOMM*%
%LPD*%
G01*
G04 APERTURE LIST*
G04 Aperture macros list*
%AMRoundRect*
0 Rectangle with rounded corners*
0 $1 Rounding radius*
0 $2 $3 $4 $5 $6 $7 $8 $9 X,Y pos of 4 corners*
0 Add a 4 corners polygon primitive as box body*
4,1,4,$2,$3,$4,$5,$6,$7,$8,$9,$2,$3,0*
0 Add four circle primitives for the rounded corners*
1,1,$1+$1,$2,$3*
1,1,$1+$1,$4,$5*
1,1,$1+$1,$6,$7*
1,1,$1+$1,$8,$9*
0 Add four rect primitives between the rounded corners*
20,1,$1+$1,$2,$3,$4,$5,0*
20,1,$1+$1,$4,$5,$6,$7,0*
20,1,$1+$1,$6,$7,$8,$9,0*
20,1,$1+$1,$8,$9,$2,$3,0*%
G04 Aperture macros list end*
%ADD10C,2.700000*%
%ADD11RoundRect,0.250000X0.400000X0.625000X-0.400000X0.625000X-0.400000X-0.625000X0.400000X-0.625000X0*%
%ADD12RoundRect,0.250000X-0.337500X-0.475000X0.337500X-0.475000X0.337500X0.475000X-0.337500X0.475000X0*%
%ADD13RoundRect,0.150000X-0.512500X-0.150000X0.512500X-0.150000X0.512500X0.150000X-0.512500X0.150000X0*%
%ADD14RoundRect,0.250000X-0.625000X0.400000X-0.625000X-0.400000X0.625000X-0.400000X0.625000X0.400000X0*%
%ADD15RoundRect,0.250000X0.625000X-0.400000X0.625000X0.400000X-0.625000X0.400000X-0.625000X-0.400000X0*%
%ADD16RoundRect,0.250000X-0.400000X-0.625000X0.400000X-0.625000X0.400000X0.625000X-0.400000X0.625000X0*%
%ADD17RoundRect,0.250000X0.475000X-0.337500X0.475000X0.337500X-0.475000X0.337500X-0.475000X-0.337500X0*%
%ADD18R,1.700000X1.700000*%
%ADD19C,1.700000*%
%ADD20RoundRect,0.250000X-0.550000X-0.550000X0.550000X-0.550000X0.550000X0.550000X-0.550000X0.550000X0*%
%ADD21C,1.600000*%
%ADD22RoundRect,0.250000X-0.550000X0.550000X-0.550000X-0.550000X0.550000X-0.550000X0.550000X0.550000X0*%
%ADD23RoundRect,0.250000X0.620000X-0.620000X0.620000X0.620000X-0.620000X0.620000X-0.620000X-0.620000X0*%
%ADD24C,1.740000*%
%ADD25C,1.900000*%
%ADD26RoundRect,0.102000X0.754000X0.754000X-0.754000X0.754000X-0.754000X-0.754000X0.754000X-0.754000X0*%
%ADD27C,1.712000*%
%ADD28RoundRect,0.250000X0.550000X0.550000X-0.550000X0.550000X-0.550000X-0.550000X0.550000X-0.550000X0*%
%ADD29RoundRect,0.102000X0.350000X0.600000X-0.350000X0.600000X-0.350000X-0.600000X0.350000X-0.600000X0*%
%ADD30RoundRect,0.102000X0.380000X0.600000X-0.380000X0.600000X-0.380000X-0.600000X0.380000X-0.600000X0*%
%ADD31RoundRect,0.102000X0.400000X0.600000X-0.400000X0.600000X-0.400000X-0.600000X0.400000X-0.600000X0*%
%ADD32O,1.354000X1.954000*%
%ADD33RoundRect,0.102000X-0.754000X0.754000X-0.754000X-0.754000X0.754000X-0.754000X0.754000X0.754000X0*%
%ADD34R,2.000000X1.200000*%
%ADD35O,2.000000X1.200000*%
G04 APERTURE END LIST*
D10*
%TO.C,H2*%
X204500000Y-124500000D03*
%TD*%
D11*
%TO.C,R2*%
X136800000Y-80250000D03*
X133700000Y-80250000D03*
%TD*%
D12*
%TO.C,C2*%
X135212500Y-89500000D03*
X137287500Y-89500000D03*
%TD*%
D13*
%TO.C,U3*%
X135862500Y-84550000D03*
X135862500Y-85500000D03*
X135862500Y-86450000D03*
X138137500Y-86450000D03*
X138137500Y-85500000D03*
X138137500Y-84550000D03*
%TD*%
D14*
%TO.C,R8*%
X143750000Y-122137500D03*
X143750000Y-125237500D03*
%TD*%
%TO.C,R3*%
X162250000Y-94950000D03*
X162250000Y-98050000D03*
%TD*%
D15*
%TO.C,R13*%
X153500000Y-98050000D03*
X153500000Y-94950000D03*
%TD*%
D12*
%TO.C,C5*%
X160212500Y-101500000D03*
X162287500Y-101500000D03*
%TD*%
D16*
%TO.C,R1*%
X127700000Y-80250000D03*
X130800000Y-80250000D03*
%TD*%
D13*
%TO.C,U2*%
X127862500Y-84550000D03*
X127862500Y-85500000D03*
X127862500Y-86450000D03*
X130137500Y-86450000D03*
X130137500Y-85500000D03*
X130137500Y-84550000D03*
%TD*%
D17*
%TO.C,C6*%
X140000000Y-101575000D03*
X140000000Y-99500000D03*
%TD*%
D18*
%TO.C,SMX1*%
X137500000Y-74250000D03*
D19*
X134960000Y-74250000D03*
X132420000Y-74250000D03*
X129880000Y-74250000D03*
X127340000Y-74250000D03*
X124800000Y-74250000D03*
%TD*%
D20*
%TO.C,U4*%
X154380000Y-105720000D03*
D21*
X154380000Y-108260000D03*
X154380000Y-110800000D03*
X154380000Y-113340000D03*
X154380000Y-115880000D03*
X154380000Y-118420000D03*
X154380000Y-120960000D03*
X154380000Y-123500000D03*
X162000000Y-123500000D03*
X162000000Y-120960000D03*
X162000000Y-118420000D03*
X162000000Y-115880000D03*
X162000000Y-113340000D03*
X162000000Y-110800000D03*
X162000000Y-108260000D03*
X162000000Y-105720000D03*
%TD*%
D14*
%TO.C,R7*%
X147000000Y-122100000D03*
X147000000Y-125200000D03*
%TD*%
D10*
%TO.C,H1*%
X204500000Y-73500000D03*
%TD*%
%TO.C,H4*%
X100500000Y-73500000D03*
%TD*%
D22*
%TO.C,U6*%
X134620000Y-105695000D03*
D21*
X132080000Y-105695000D03*
X129540000Y-105695000D03*
X127000000Y-105695000D03*
X124460000Y-105695000D03*
X121920000Y-105695000D03*
X119380000Y-105695000D03*
X119380000Y-113315000D03*
X121920000Y-113315000D03*
X124460000Y-113315000D03*
X127000000Y-113315000D03*
X129540000Y-113315000D03*
X132080000Y-113315000D03*
X134620000Y-113315000D03*
%TD*%
D17*
%TO.C,C8*%
X140000000Y-113287500D03*
X140000000Y-111212500D03*
%TD*%
D14*
%TO.C,R4*%
X158000000Y-94950000D03*
X158000000Y-98050000D03*
%TD*%
%TO.C,R9*%
X143750000Y-110162500D03*
X143750000Y-113262500D03*
%TD*%
D15*
%TO.C,R6*%
X113000000Y-84800000D03*
X113000000Y-81700000D03*
%TD*%
D23*
%TO.C,J2*%
X202250000Y-103990000D03*
D24*
X202250000Y-101450000D03*
X202250000Y-98910000D03*
X202250000Y-96370000D03*
X202250000Y-93830000D03*
X202250000Y-91290000D03*
X202250000Y-88750000D03*
X202250000Y-86210000D03*
X202250000Y-83670000D03*
X202250000Y-81130000D03*
%TD*%
D25*
%TO.C,DPDT1*%
X198250000Y-72100000D03*
X195750000Y-72100000D03*
X193250000Y-72100000D03*
X198250000Y-75400000D03*
X195750000Y-75400000D03*
X193250000Y-75400000D03*
%TD*%
D26*
%TO.C,J1*%
X145000000Y-75500000D03*
D27*
X147500000Y-80500000D03*
X150000000Y-75500000D03*
X152500000Y-80500000D03*
X155000000Y-75500000D03*
X157500000Y-80500000D03*
X160000000Y-75500000D03*
X162500000Y-80500000D03*
%TD*%
D28*
%TO.C,C4*%
X203705113Y-118250000D03*
D21*
X201205113Y-118250000D03*
%TD*%
D10*
%TO.C,H3*%
X100500000Y-124500000D03*
%TD*%
D29*
%TO.C,5v in1*%
X115500000Y-76780000D03*
D30*
X113480000Y-76780000D03*
D31*
X112250000Y-76780000D03*
D29*
X114500000Y-76780000D03*
D30*
X116520000Y-76780000D03*
D31*
X117750000Y-76780000D03*
D32*
X119320000Y-76700000D03*
X110680000Y-76700000D03*
X119320000Y-72900000D03*
X110680000Y-72900000D03*
%TD*%
D28*
%TO.C,C3*%
X203705113Y-111750000D03*
D21*
X201205113Y-111750000D03*
%TD*%
D33*
%TO.C,J3*%
X102250000Y-113500000D03*
D27*
X107250000Y-111000000D03*
X102250000Y-108500000D03*
X107250000Y-106000000D03*
X102250000Y-103500000D03*
X107250000Y-101000000D03*
X102250000Y-98500000D03*
X107250000Y-96000000D03*
X102250000Y-93500000D03*
X107250000Y-91000000D03*
X102250000Y-88500000D03*
X107250000Y-86000000D03*
%TD*%
D22*
%TO.C,U5*%
X134620000Y-117595000D03*
D21*
X132080000Y-117595000D03*
X129540000Y-117595000D03*
X127000000Y-117595000D03*
X124460000Y-117595000D03*
X121920000Y-117595000D03*
X119380000Y-117595000D03*
X119380000Y-125215000D03*
X121920000Y-125215000D03*
X124460000Y-125215000D03*
X127000000Y-125215000D03*
X129540000Y-125215000D03*
X132080000Y-125215000D03*
X134620000Y-125215000D03*
%TD*%
D17*
%TO.C,C7*%
X140000000Y-125187500D03*
X140000000Y-123112500D03*
%TD*%
D15*
%TO.C,R5*%
X118000000Y-84800000D03*
X118000000Y-81700000D03*
%TD*%
D14*
%TO.C,R10*%
X147000000Y-110200000D03*
X147000000Y-113300000D03*
%TD*%
D34*
%TO.C,U1*%
X193996320Y-126217280D03*
D35*
X193996320Y-123677280D03*
X193996320Y-121137280D03*
X193996320Y-118597280D03*
X193996320Y-116057280D03*
X193996320Y-113517280D03*
X193996320Y-110977280D03*
X193996320Y-108437280D03*
X193996320Y-105897280D03*
X193996320Y-103357280D03*
X193996320Y-100817280D03*
X193996320Y-98277280D03*
X193996320Y-95737280D03*
X193996320Y-93197280D03*
X193996320Y-90657280D03*
X193996320Y-88117280D03*
X193996320Y-85577280D03*
X193996320Y-83037280D03*
X193996320Y-80497280D03*
X171000000Y-80500000D03*
X171000000Y-83040000D03*
X170996320Y-85577280D03*
X170996320Y-88117280D03*
X170996320Y-90657280D03*
X170996320Y-93197280D03*
X170996320Y-95737280D03*
X170996320Y-98277280D03*
X170996320Y-100817280D03*
X170996320Y-103357280D03*
X170996320Y-105897280D03*
X170996320Y-108437280D03*
X170996320Y-110977280D03*
X170996320Y-113517280D03*
X170996320Y-116057280D03*
X170996320Y-118597280D03*
X170996320Y-121137280D03*
X170996320Y-123677280D03*
X170996320Y-126217280D03*
%TD*%
D22*
%TO.C,U7*%
X134620000Y-94195000D03*
D21*
X132080000Y-94195000D03*
X129540000Y-94195000D03*
X127000000Y-94195000D03*
X124460000Y-94195000D03*
X121920000Y-94195000D03*
X119380000Y-94195000D03*
X119380000Y-101815000D03*
X121920000Y-101815000D03*
X124460000Y-101815000D03*
X127000000Y-101815000D03*
X129540000Y-101815000D03*
X132080000Y-101815000D03*
X134620000Y-101815000D03*
%TD*%
D12*
%TO.C,C1*%
X129462500Y-89500000D03*
X131537500Y-89500000D03*
%TD*%
D14*
%TO.C,R11*%
X143750000Y-98450000D03*
X143750000Y-101550000D03*
%TD*%
%TO.C,R12*%
X147000000Y-98450000D03*
X147000000Y-101550000D03*
%TD*%
M02*
