M48
; DRILL file {KiCad 9.0.6} date 2025-11-29T12:35:45-0500
; FORMAT={-:-/ absolute / metric / decimal}
; #@! TF.CreationDate,2025-11-29T12:35:45-05:00
; #@! TF.GenerationSoftware,Kicad,Pcbnew,9.0.6
; #@! TF.FileFunction,Plated,1,2,PTH
FMAT,2
METRIC
; #@! TA.AperFunction,Plated,PTH,ViaDrill
T1C0.400
; #@! TA.AperFunction,Plated,PTH,ComponentDrill
T2C0.650
; #@! TA.AperFunction,Plated,PTH,ComponentDrill
T3C0.800
; #@! TA.AperFunction,Plated,PTH,ComponentDrill
T4C0.900
; #@! TA.AperFunction,Plated,PTH,ComponentDrill
T5C1.000
; #@! TA.AperFunction,Plated,PTH,ComponentDrill
T6C1.090
%
G90
G05
T1
X115.25Y-85.25
X116.294Y-106.706
X118.0Y-116.556
X122.476Y-96.024
X123.467Y-93.04
X125.25Y-98.75
X126.5Y-83.25
X126.5Y-92.34
X127.127Y-95.873
X127.75Y-91.25
X129.0Y-91.694
X130.0Y-92.394
X130.0Y-110.0
X130.127Y-122.273
X130.183Y-123.583
X130.433Y-99.933
X130.433Y-111.433
X131.433Y-110.433
X132.75Y-87.25
X133.0Y-92.394
X133.426Y-114.045
X134.0Y-87.25
X134.5Y-83.25
X135.5Y-77.75
X137.0Y-99.5
X137.0Y-108.0
X137.0Y-111.25
X137.5Y-102.6
X139.25Y-77.75
X139.39Y-81.0
X139.39Y-83.0
X140.0Y-120.4
X140.75Y-87.25
X141.0Y-90.437
X141.0Y-97.5
X141.25Y-82.5
X141.25Y-84.0
X141.75Y-111.75
X142.0Y-102.6
X142.75Y-90.25
X142.75Y-92.25
X143.655Y-96.095
X145.0Y-107.0
X148.5Y-95.0
X148.85Y-118.5
X148.85Y-120.25
X149.5Y-102.5
X149.765Y-107.735
X150.196Y-100.64
X150.274Y-110.226
X150.5Y-95.5
X151.0Y-89.75
X151.051Y-118.219
X151.051Y-120.25
X151.265Y-109.235
X152.0Y-92.7
X152.176Y-100.074
X157.25Y-102.75
X158.0Y-88.75
X158.25Y-92.7
X158.494Y-90.437
X159.849Y-106.599
X160.599Y-92.0
X162.0Y-92.0
X162.887Y-89.637
X164.0Y-84.0
X164.5Y-117.5
X164.5Y-119.12
X166.017Y-85.517
X166.25Y-122.5
X167.75Y-120.86
X173.374Y-112.624
X186.908Y-96.908
X188.874Y-97.124
X191.875Y-89.05
T3
X119.38Y-94.195
X119.38Y-101.815
X119.38Y-105.695
X119.38Y-113.315
X119.38Y-117.595
X119.38Y-125.215
X121.92Y-94.195
X121.92Y-101.815
X121.92Y-105.695
X121.92Y-113.315
X121.92Y-117.595
X121.92Y-125.215
X124.46Y-94.195
X124.46Y-101.815
X124.46Y-105.695
X124.46Y-113.315
X124.46Y-117.595
X124.46Y-125.215
X127.0Y-94.195
X127.0Y-101.815
X127.0Y-105.695
X127.0Y-113.315
X127.0Y-117.595
X127.0Y-125.215
X129.54Y-94.195
X129.54Y-101.815
X129.54Y-105.695
X129.54Y-113.315
X129.54Y-117.595
X129.54Y-125.215
X132.08Y-94.195
X132.08Y-101.815
X132.08Y-105.695
X132.08Y-113.315
X132.08Y-117.595
X132.08Y-125.215
X134.62Y-94.195
X134.62Y-101.815
X134.62Y-105.695
X134.62Y-113.315
X134.62Y-117.595
X134.62Y-125.215
X154.38Y-105.72
X154.38Y-108.26
X154.38Y-110.8
X154.38Y-113.34
X154.38Y-115.88
X154.38Y-118.42
X154.38Y-120.96
X154.38Y-123.5
X162.0Y-105.72
X162.0Y-108.26
X162.0Y-110.8
X162.0Y-113.34
X162.0Y-115.88
X162.0Y-118.42
X162.0Y-120.96
X162.0Y-123.5
X170.996Y-85.577
X170.996Y-88.117
X170.996Y-90.657
X170.996Y-93.197
X170.996Y-95.737
X170.996Y-98.277
X170.996Y-100.817
X170.996Y-103.357
X170.996Y-105.897
X170.996Y-108.437
X170.996Y-110.977
X170.996Y-113.517
X170.996Y-116.057
X170.996Y-118.597
X170.996Y-121.137
X170.996Y-123.677
X170.996Y-126.217
X171.0Y-80.5
X171.0Y-83.04
X193.996Y-80.497
X193.996Y-83.037
X193.996Y-85.577
X193.996Y-88.117
X193.996Y-90.657
X193.996Y-93.197
X193.996Y-95.737
X193.996Y-98.277
X193.996Y-100.817
X193.996Y-103.357
X193.996Y-105.897
X193.996Y-108.437
X193.996Y-110.977
X193.996Y-113.517
X193.996Y-116.057
X193.996Y-118.597
X193.996Y-121.137
X193.996Y-123.677
X193.996Y-126.217
X201.205Y-111.75
X201.205Y-118.25
X203.705Y-111.75
X203.705Y-118.25
T4
X193.25Y-72.1
X193.25Y-75.4
X195.75Y-72.1
X195.75Y-75.4
X198.25Y-72.1
X198.25Y-75.4
T5
X102.25Y-88.5
X102.25Y-93.5
X102.25Y-98.5
X102.25Y-103.5
X102.25Y-108.5
X102.25Y-113.5
X107.25Y-86.0
X107.25Y-91.0
X107.25Y-96.0
X107.25Y-101.0
X107.25Y-106.0
X107.25Y-111.0
X124.8Y-74.25
X127.34Y-74.25
X129.88Y-74.25
X132.42Y-74.25
X134.96Y-74.25
X137.5Y-74.25
X145.0Y-75.5
X147.5Y-80.5
X150.0Y-75.5
X152.5Y-80.5
X155.0Y-75.5
X157.5Y-80.5
X160.0Y-75.5
X162.5Y-80.5
T6
X202.25Y-81.13
X202.25Y-83.67
X202.25Y-86.21
X202.25Y-88.75
X202.25Y-91.29
X202.25Y-93.83
X202.25Y-96.37
X202.25Y-98.91
X202.25Y-101.45
X202.25Y-103.99
T2
G00X110.68Y-73.2
M15
G01X110.68Y-72.6
M16
G05
G00X110.68Y-77.0
M15
G01X110.68Y-76.4
M16
G05
G00X119.32Y-73.2
M15
G01X119.32Y-72.6
M16
G05
G00X119.32Y-77.0
M15
G01X119.32Y-76.4
M16
G05
M30
