%TF.GenerationSoftware,KiCad,Pcbnew,9.0.6*%
%TF.CreationDate,2025-11-29T12:35:40-05:00*%
%TF.ProjectId,MoistureSensor1,4d6f6973-7475-4726-9553-656e736f7231,1.0.0*%
%TF.SameCoordinates,Original*%
%TF.FileFunction,Paste,Top*%
%TF.FilePolarity,Positive*%
%FSLAX46Y46*%
G04 Gerber Fmt 4.6, Leading zero omitted, Abs format (unit mm)*
G04 Created by KiCad (PCBNEW 9.0.6) date 2025-11-29 12:35:40*
%MOMM*%
%LPD*%
G01*
G04 APERTURE LIST*
G04 Aperture macros list*
%AMRoundRect*
0 Rectangle with rounded corners*
0 $1 Rounding radius*
0 $2 $3 $4 $5 $6 $7 $8 $9 X,Y pos of 4 corners*
0 Add a 4 corners polygon primitive as box body*
4,1,4,$2,$3,$4,$5,$6,$7,$8,$9,$2,$3,0*
0 Add four circle primitives for the rounded corners*
1,1,$1+$1,$2,$3*
1,1,$1+$1,$4,$5*
1,1,$1+$1,$6,$7*
1,1,$1+$1,$8,$9*
0 Add four rect primitives between the rounded corners*
20,1,$1+$1,$2,$3,$4,$5,0*
20,1,$1+$1,$4,$5,$6,$7,0*
20,1,$1+$1,$6,$7,$8,$9,0*
20,1,$1+$1,$8,$9,$2,$3,0*%
G04 Aperture macros list end*
%ADD10RoundRect,0.250000X0.400000X0.625000X-0.400000X0.625000X-0.400000X-0.625000X0.400000X-0.625000X0*%
%ADD11RoundRect,0.250000X-0.337500X-0.475000X0.337500X-0.475000X0.337500X0.475000X-0.337500X0.475000X0*%
%ADD12RoundRect,0.150000X-0.512500X-0.150000X0.512500X-0.150000X0.512500X0.150000X-0.512500X0.150000X0*%
%ADD13RoundRect,0.250000X-0.625000X0.400000X-0.625000X-0.400000X0.625000X-0.400000X0.625000X0.400000X0*%
%ADD14RoundRect,0.250000X0.625000X-0.400000X0.625000X0.400000X-0.625000X0.400000X-0.625000X-0.400000X0*%
%ADD15RoundRect,0.250000X-0.400000X-0.625000X0.400000X-0.625000X0.400000X0.625000X-0.400000X0.625000X0*%
%ADD16RoundRect,0.250000X0.475000X-0.337500X0.475000X0.337500X-0.475000X0.337500X-0.475000X-0.337500X0*%
%ADD17R,0.700000X1.200000*%
%ADD18R,0.760000X1.200000*%
%ADD19R,0.800000X1.200000*%
G04 APERTURE END LIST*
D10*
%TO.C,R2*%
X136800000Y-80250000D03*
X133700000Y-80250000D03*
%TD*%
D11*
%TO.C,C2*%
X135212500Y-89500000D03*
X137287500Y-89500000D03*
%TD*%
D12*
%TO.C,U3*%
X135862500Y-84550000D03*
X135862500Y-85500000D03*
X135862500Y-86450000D03*
X138137500Y-86450000D03*
X138137500Y-85500000D03*
X138137500Y-84550000D03*
%TD*%
D13*
%TO.C,R8*%
X143750000Y-122137500D03*
X143750000Y-125237500D03*
%TD*%
%TO.C,R3*%
X162250000Y-94950000D03*
X162250000Y-98050000D03*
%TD*%
D14*
%TO.C,R13*%
X153500000Y-98050000D03*
X153500000Y-94950000D03*
%TD*%
D11*
%TO.C,C5*%
X160212500Y-101500000D03*
X162287500Y-101500000D03*
%TD*%
D15*
%TO.C,R1*%
X127700000Y-80250000D03*
X130800000Y-80250000D03*
%TD*%
D12*
%TO.C,U2*%
X127862500Y-84550000D03*
X127862500Y-85500000D03*
X127862500Y-86450000D03*
X130137500Y-86450000D03*
X130137500Y-85500000D03*
X130137500Y-84550000D03*
%TD*%
D16*
%TO.C,C6*%
X140000000Y-101575000D03*
X140000000Y-99500000D03*
%TD*%
D13*
%TO.C,R7*%
X147000000Y-122100000D03*
X147000000Y-125200000D03*
%TD*%
D16*
%TO.C,C8*%
X140000000Y-113287500D03*
X140000000Y-111212500D03*
%TD*%
D13*
%TO.C,R4*%
X158000000Y-94950000D03*
X158000000Y-98050000D03*
%TD*%
%TO.C,R9*%
X143750000Y-110162500D03*
X143750000Y-113262500D03*
%TD*%
D14*
%TO.C,R6*%
X113000000Y-84800000D03*
X113000000Y-81700000D03*
%TD*%
D17*
%TO.C,5v in1*%
X115500000Y-76780000D03*
D18*
X113480000Y-76780000D03*
D19*
X112250000Y-76780000D03*
D17*
X114500000Y-76780000D03*
D18*
X116520000Y-76780000D03*
D19*
X117750000Y-76780000D03*
%TD*%
D16*
%TO.C,C7*%
X140000000Y-125187500D03*
X140000000Y-123112500D03*
%TD*%
D14*
%TO.C,R5*%
X118000000Y-84800000D03*
X118000000Y-81700000D03*
%TD*%
D13*
%TO.C,R10*%
X147000000Y-110200000D03*
X147000000Y-113300000D03*
%TD*%
D11*
%TO.C,C1*%
X129462500Y-89500000D03*
X131537500Y-89500000D03*
%TD*%
D13*
%TO.C,R11*%
X143750000Y-98450000D03*
X143750000Y-101550000D03*
%TD*%
%TO.C,R12*%
X147000000Y-98450000D03*
X147000000Y-101550000D03*
%TD*%
M02*
