%TF.GenerationSoftware,KiCad,Pcbnew,9.0.3*%
%TF.CreationDate,2025-10-07T23:40:21-05:00*%
%TF.ProjectId,MoistureSensor1,4d6f6973-7475-4726-9553-656e736f7231,1.0.0*%
%TF.SameCoordinates,Original*%
%TF.FileFunction,Soldermask,Bot*%
%TF.FilePolarity,Negative*%
%FSLAX46Y46*%
G04 Gerber Fmt 4.6, Leading zero omitted, Abs format (unit mm)*
G04 Created by KiCad (PCBNEW 9.0.3) date 2025-10-07 23:40:21*
%MOMM*%
%LPD*%
G01*
G04 APERTURE LIST*
G04 Aperture macros list*
%AMRoundRect*
0 Rectangle with rounded corners*
0 $1 Rounding radius*
0 $2 $3 $4 $5 $6 $7 $8 $9 X,Y pos of 4 corners*
0 Add a 4 corners polygon primitive as box body*
4,1,4,$2,$3,$4,$5,$6,$7,$8,$9,$2,$3,0*
0 Add four circle primitives for the rounded corners*
1,1,$1+$1,$2,$3*
1,1,$1+$1,$4,$5*
1,1,$1+$1,$6,$7*
1,1,$1+$1,$8,$9*
0 Add four rect primitives between the rounded corners*
20,1,$1+$1,$2,$3,$4,$5,0*
20,1,$1+$1,$4,$5,$6,$7,0*
20,1,$1+$1,$6,$7,$8,$9,0*
20,1,$1+$1,$8,$9,$2,$3,0*%
G04 Aperture macros list end*
%ADD10C,3.200000*%
%ADD11R,1.700000X1.700000*%
%ADD12C,1.700000*%
%ADD13RoundRect,0.250000X-0.550000X-0.550000X0.550000X-0.550000X0.550000X0.550000X-0.550000X0.550000X0*%
%ADD14C,1.600000*%
%ADD15RoundRect,0.250000X-0.550000X0.550000X-0.550000X-0.550000X0.550000X-0.550000X0.550000X0.550000X0*%
%ADD16RoundRect,0.250000X0.620000X-0.620000X0.620000X0.620000X-0.620000X0.620000X-0.620000X-0.620000X0*%
%ADD17C,1.740000*%
%ADD18C,1.900000*%
%ADD19RoundRect,0.201923X-0.638077X-1.398077X0.638077X-1.398077X0.638077X1.398077X-0.638077X1.398077X0*%
%ADD20O,1.680000X3.200000*%
%ADD21RoundRect,0.250000X0.550000X-0.550000X0.550000X0.550000X-0.550000X0.550000X-0.550000X-0.550000X0*%
%ADD22O,1.354000X1.954000*%
%ADD23RoundRect,0.250000X0.550000X0.550000X-0.550000X0.550000X-0.550000X-0.550000X0.550000X-0.550000X0*%
%ADD24RoundRect,0.201923X1.398077X-0.638077X1.398077X0.638077X-1.398077X0.638077X-1.398077X-0.638077X0*%
%ADD25O,3.200000X1.680000*%
%ADD26R,2.000000X1.200000*%
%ADD27O,2.000000X1.200000*%
G04 APERTURE END LIST*
D10*
%TO.C,H2*%
X203000000Y-123000000D03*
%TD*%
D11*
%TO.C,SMX*%
X137500000Y-74250000D03*
D12*
X134960000Y-74250000D03*
X132420000Y-74250000D03*
X129880000Y-74250000D03*
X127340000Y-74250000D03*
X124800000Y-74250000D03*
%TD*%
D13*
%TO.C,U4*%
X154380000Y-105720000D03*
D14*
X154380000Y-108260000D03*
X154380000Y-110800000D03*
X154380000Y-113340000D03*
X154380000Y-115880000D03*
X154380000Y-118420000D03*
X154380000Y-120960000D03*
X154380000Y-123500000D03*
X162000000Y-123500000D03*
X162000000Y-120960000D03*
X162000000Y-118420000D03*
X162000000Y-115880000D03*
X162000000Y-113340000D03*
X162000000Y-110800000D03*
X162000000Y-108260000D03*
X162000000Y-105720000D03*
%TD*%
D10*
%TO.C,H1*%
X203000000Y-75000000D03*
%TD*%
%TO.C,H4*%
X102000000Y-75000000D03*
%TD*%
D15*
%TO.C,U6*%
X134620000Y-105695000D03*
D14*
X132080000Y-105695000D03*
X129540000Y-105695000D03*
X127000000Y-105695000D03*
X124460000Y-105695000D03*
X121920000Y-105695000D03*
X119380000Y-105695000D03*
X119380000Y-113315000D03*
X121920000Y-113315000D03*
X124460000Y-113315000D03*
X127000000Y-113315000D03*
X129540000Y-113315000D03*
X132080000Y-113315000D03*
X134620000Y-113315000D03*
%TD*%
D16*
%TO.C,J4*%
X202250000Y-106930000D03*
D17*
X202250000Y-104390000D03*
X202250000Y-101850000D03*
X202250000Y-99310000D03*
X202250000Y-96770000D03*
X202250000Y-94230000D03*
X202250000Y-91690000D03*
X202250000Y-89150000D03*
X202250000Y-86610000D03*
X202250000Y-84070000D03*
%TD*%
D18*
%TO.C,On     Off*%
X173250000Y-72350000D03*
X170750000Y-72350000D03*
X168250000Y-72350000D03*
X173250000Y-75650000D03*
X170750000Y-75650000D03*
X168250000Y-75650000D03*
%TD*%
D19*
%TO.C,J6*%
X145000000Y-75500000D03*
D20*
X147500000Y-80500000D03*
X150000000Y-75500000D03*
X152500000Y-80500000D03*
X155000000Y-75500000D03*
X157500000Y-80500000D03*
X160000000Y-75500000D03*
X162500000Y-80500000D03*
%TD*%
D21*
%TO.C,C4*%
X195000000Y-76705113D03*
D14*
X195000000Y-74205113D03*
%TD*%
D10*
%TO.C,H3*%
X102000000Y-123000000D03*
%TD*%
D22*
%TO.C,5v in*%
X119320000Y-77300000D03*
X110680000Y-77300000D03*
X119320000Y-73500000D03*
X110680000Y-73500000D03*
%TD*%
D23*
%TO.C,C3*%
X203500000Y-114500000D03*
D14*
X201000000Y-114500000D03*
%TD*%
D24*
%TO.C,J5*%
X102250000Y-113500000D03*
D25*
X107250000Y-111000000D03*
X102250000Y-108500000D03*
X107250000Y-106000000D03*
X102250000Y-103500000D03*
X107250000Y-101000000D03*
X102250000Y-98500000D03*
X107250000Y-96000000D03*
X102250000Y-93500000D03*
X107250000Y-91000000D03*
X102250000Y-88500000D03*
X107250000Y-86000000D03*
%TD*%
D15*
%TO.C,U5*%
X134620000Y-117695000D03*
D14*
X132080000Y-117695000D03*
X129540000Y-117695000D03*
X127000000Y-117695000D03*
X124460000Y-117695000D03*
X121920000Y-117695000D03*
X119380000Y-117695000D03*
X119380000Y-125315000D03*
X121920000Y-125315000D03*
X124460000Y-125315000D03*
X127000000Y-125315000D03*
X129540000Y-125315000D03*
X132080000Y-125315000D03*
X134620000Y-125315000D03*
%TD*%
D26*
%TO.C,U1*%
X195400000Y-126640000D03*
D27*
X195400000Y-124100000D03*
X195400000Y-121560000D03*
X195400000Y-119020000D03*
X195400000Y-116480000D03*
X195400000Y-113940000D03*
X195400000Y-111400000D03*
X195400000Y-108860000D03*
X195400000Y-106320000D03*
X195400000Y-103780000D03*
X195400000Y-101240000D03*
X195400000Y-98700000D03*
X195400000Y-96160000D03*
X195400000Y-93620000D03*
X195400000Y-91080000D03*
X195400000Y-88540000D03*
X195400000Y-86000000D03*
X195400000Y-83460000D03*
X195400000Y-80920000D03*
X170003680Y-80922720D03*
X170003680Y-83462720D03*
X170000000Y-86000000D03*
X170000000Y-88540000D03*
X170000000Y-91080000D03*
X170000000Y-93620000D03*
X170000000Y-96160000D03*
X170000000Y-98700000D03*
X170000000Y-101240000D03*
X170000000Y-103780000D03*
X170000000Y-106320000D03*
X170000000Y-108860000D03*
X170000000Y-111400000D03*
X170000000Y-113940000D03*
X170000000Y-116480000D03*
X170000000Y-119020000D03*
X170000000Y-121560000D03*
X170000000Y-124100000D03*
X170000000Y-126640000D03*
%TD*%
D15*
%TO.C,U7*%
X134620000Y-94195000D03*
D14*
X132080000Y-94195000D03*
X129540000Y-94195000D03*
X127000000Y-94195000D03*
X124460000Y-94195000D03*
X121920000Y-94195000D03*
X119380000Y-94195000D03*
X119380000Y-101815000D03*
X121920000Y-101815000D03*
X124460000Y-101815000D03*
X127000000Y-101815000D03*
X129540000Y-101815000D03*
X132080000Y-101815000D03*
X134620000Y-101815000D03*
%TD*%
M02*
