%TF.GenerationSoftware,KiCad,Pcbnew,9.0.6*%
%TF.CreationDate,2025-11-29T12:35:40-05:00*%
%TF.ProjectId,MoistureSensor1,4d6f6973-7475-4726-9553-656e736f7231,1.0.0*%
%TF.SameCoordinates,Original*%
%TF.FileFunction,Copper,L1,Top*%
%TF.FilePolarity,Positive*%
%FSLAX46Y46*%
G04 Gerber Fmt 4.6, Leading zero omitted, Abs format (unit mm)*
G04 Created by KiCad (PCBNEW 9.0.6) date 2025-11-29 12:35:40*
%MOMM*%
%LPD*%
G01*
G04 APERTURE LIST*
G04 Aperture macros list*
%AMRoundRect*
0 Rectangle with rounded corners*
0 $1 Rounding radius*
0 $2 $3 $4 $5 $6 $7 $8 $9 X,Y pos of 4 corners*
0 Add a 4 corners polygon primitive as box body*
4,1,4,$2,$3,$4,$5,$6,$7,$8,$9,$2,$3,0*
0 Add four circle primitives for the rounded corners*
1,1,$1+$1,$2,$3*
1,1,$1+$1,$4,$5*
1,1,$1+$1,$6,$7*
1,1,$1+$1,$8,$9*
0 Add four rect primitives between the rounded corners*
20,1,$1+$1,$2,$3,$4,$5,0*
20,1,$1+$1,$4,$5,$6,$7,0*
20,1,$1+$1,$6,$7,$8,$9,0*
20,1,$1+$1,$8,$9,$2,$3,0*%
G04 Aperture macros list end*
%TA.AperFunction,SMDPad,CuDef*%
%ADD10RoundRect,0.250000X0.400000X0.625000X-0.400000X0.625000X-0.400000X-0.625000X0.400000X-0.625000X0*%
%TD*%
%TA.AperFunction,SMDPad,CuDef*%
%ADD11RoundRect,0.250000X-0.337500X-0.475000X0.337500X-0.475000X0.337500X0.475000X-0.337500X0.475000X0*%
%TD*%
%TA.AperFunction,SMDPad,CuDef*%
%ADD12RoundRect,0.150000X-0.512500X-0.150000X0.512500X-0.150000X0.512500X0.150000X-0.512500X0.150000X0*%
%TD*%
%TA.AperFunction,SMDPad,CuDef*%
%ADD13RoundRect,0.250000X-0.625000X0.400000X-0.625000X-0.400000X0.625000X-0.400000X0.625000X0.400000X0*%
%TD*%
%TA.AperFunction,SMDPad,CuDef*%
%ADD14RoundRect,0.250000X0.625000X-0.400000X0.625000X0.400000X-0.625000X0.400000X-0.625000X-0.400000X0*%
%TD*%
%TA.AperFunction,SMDPad,CuDef*%
%ADD15RoundRect,0.250000X-0.400000X-0.625000X0.400000X-0.625000X0.400000X0.625000X-0.400000X0.625000X0*%
%TD*%
%TA.AperFunction,SMDPad,CuDef*%
%ADD16RoundRect,0.250000X0.475000X-0.337500X0.475000X0.337500X-0.475000X0.337500X-0.475000X-0.337500X0*%
%TD*%
%TA.AperFunction,ComponentPad*%
%ADD17R,1.700000X1.700000*%
%TD*%
%TA.AperFunction,ComponentPad*%
%ADD18C,1.700000*%
%TD*%
%TA.AperFunction,ComponentPad*%
%ADD19RoundRect,0.250000X-0.550000X-0.550000X0.550000X-0.550000X0.550000X0.550000X-0.550000X0.550000X0*%
%TD*%
%TA.AperFunction,ComponentPad*%
%ADD20C,1.600000*%
%TD*%
%TA.AperFunction,ComponentPad*%
%ADD21RoundRect,0.250000X-0.550000X0.550000X-0.550000X-0.550000X0.550000X-0.550000X0.550000X0.550000X0*%
%TD*%
%TA.AperFunction,ComponentPad*%
%ADD22RoundRect,0.250000X0.620000X-0.620000X0.620000X0.620000X-0.620000X0.620000X-0.620000X-0.620000X0*%
%TD*%
%TA.AperFunction,ComponentPad*%
%ADD23C,1.740000*%
%TD*%
%TA.AperFunction,ComponentPad*%
%ADD24C,1.900000*%
%TD*%
%TA.AperFunction,ComponentPad*%
%ADD25R,1.508000X1.508000*%
%TD*%
%TA.AperFunction,ComponentPad*%
%ADD26C,1.508000*%
%TD*%
%TA.AperFunction,ComponentPad*%
%ADD27RoundRect,0.250000X0.550000X0.550000X-0.550000X0.550000X-0.550000X-0.550000X0.550000X-0.550000X0*%
%TD*%
%TA.AperFunction,SMDPad,CuDef*%
%ADD28R,0.700000X1.200000*%
%TD*%
%TA.AperFunction,SMDPad,CuDef*%
%ADD29R,0.760000X1.200000*%
%TD*%
%TA.AperFunction,SMDPad,CuDef*%
%ADD30R,0.800000X1.200000*%
%TD*%
%TA.AperFunction,ComponentPad*%
%ADD31O,1.150000X1.750000*%
%TD*%
%TA.AperFunction,ComponentPad*%
%ADD32R,2.000000X1.200000*%
%TD*%
%TA.AperFunction,ComponentPad*%
%ADD33O,2.000000X1.200000*%
%TD*%
%TA.AperFunction,ViaPad*%
%ADD34C,0.800000*%
%TD*%
%TA.AperFunction,Conductor*%
%ADD35C,0.600000*%
%TD*%
%TA.AperFunction,Conductor*%
%ADD36C,0.200000*%
%TD*%
G04 APERTURE END LIST*
D10*
%TO.P,R2,1*%
%TO.N,Net-(U3-R1{slash}C1)*%
X136800000Y-80250000D03*
%TO.P,R2,2*%
%TO.N,+5VA*%
X133700000Y-80250000D03*
%TD*%
D11*
%TO.P,C2,1*%
%TO.N,GND*%
X135212500Y-89500000D03*
%TO.P,C2,2*%
%TO.N,+5VA*%
X137287500Y-89500000D03*
%TD*%
D12*
%TO.P,U3,1,R2*%
%TO.N,GND*%
X135862500Y-84550000D03*
%TO.P,U3,2,V_OUT*%
%TO.N,Net-(J1-Pin_6)*%
X135862500Y-85500000D03*
%TO.P,U3,3,V_OUT*%
%TO.N,unconnected-(U3-V_OUT-Pad3)*%
X135862500Y-86450000D03*
%TO.P,U3,4,V_IN*%
%TO.N,+5VA*%
X138137500Y-86450000D03*
%TO.P,U3,5,ON/OFF*%
%TO.N,Net-(U3-ON{slash}OFF)*%
X138137500Y-85500000D03*
%TO.P,U3,6,R1/C1*%
%TO.N,Net-(U3-R1{slash}C1)*%
X138137500Y-84550000D03*
%TD*%
D13*
%TO.P,R8,1*%
%TO.N,Net-(U4-QE)*%
X143750000Y-122137500D03*
%TO.P,R8,2*%
%TO.N,+5VA*%
X143750000Y-125237500D03*
%TD*%
%TO.P,R3,1*%
%TO.N,Net-(J1-Pin_1)*%
X162250000Y-94950000D03*
%TO.P,R3,2*%
%TO.N,+3.3VA*%
X162250000Y-98050000D03*
%TD*%
D14*
%TO.P,R13,1*%
%TO.N,+3.3VA*%
X153500000Y-98050000D03*
%TO.P,R13,2*%
%TO.N,Net-(SMX1-Pin_3)*%
X153500000Y-94950000D03*
%TD*%
D11*
%TO.P,C5,1*%
%TO.N,GND*%
X160212500Y-101500000D03*
%TO.P,C5,2*%
%TO.N,+3.3VA*%
X162287500Y-101500000D03*
%TD*%
D15*
%TO.P,R1,1*%
%TO.N,Net-(U2-R1{slash}C1)*%
X127700000Y-80250000D03*
%TO.P,R1,2*%
%TO.N,+5VA*%
X130800000Y-80250000D03*
%TD*%
D12*
%TO.P,U2,1,R2*%
%TO.N,GND*%
X127862500Y-84550000D03*
%TO.P,U2,2,V_OUT*%
%TO.N,Net-(J1-Pin_3)*%
X127862500Y-85500000D03*
%TO.P,U2,3,V_OUT*%
%TO.N,unconnected-(U2-V_OUT-Pad3)*%
X127862500Y-86450000D03*
%TO.P,U2,4,V_IN*%
%TO.N,+5VA*%
X130137500Y-86450000D03*
%TO.P,U2,5,ON/OFF*%
%TO.N,Net-(U2-ON{slash}OFF)*%
X130137500Y-85500000D03*
%TO.P,U2,6,R1/C1*%
%TO.N,Net-(U2-R1{slash}C1)*%
X130137500Y-84550000D03*
%TD*%
D16*
%TO.P,C6,1*%
%TO.N,+5VA*%
X140000000Y-101575000D03*
%TO.P,C6,2*%
%TO.N,GND*%
X140000000Y-99500000D03*
%TD*%
D17*
%TO.P,SMX1,1,Pin_1*%
%TO.N,GND*%
X137500000Y-74250000D03*
D18*
%TO.P,SMX1,2,Pin_2*%
%TO.N,+5VA*%
X134960000Y-74250000D03*
%TO.P,SMX1,3,Pin_3*%
%TO.N,Net-(SMX1-Pin_3)*%
X132420000Y-74250000D03*
%TO.P,SMX1,4,Pin_4*%
%TO.N,GND*%
X129880000Y-74250000D03*
%TO.P,SMX1,5,Pin_5*%
%TO.N,Net-(J2-Pin_9)*%
X127340000Y-74250000D03*
%TO.P,SMX1,6,Pin_6*%
%TO.N,Net-(J2-Pin_8)*%
X124800000Y-74250000D03*
%TD*%
D19*
%TO.P,U4,1,QB*%
%TO.N,Net-(U4-QB)*%
X154380000Y-105720000D03*
D20*
%TO.P,U4,2,QC*%
%TO.N,Net-(U4-QC)*%
X154380000Y-108260000D03*
%TO.P,U4,3,QD*%
%TO.N,Net-(U4-QD)*%
X154380000Y-110800000D03*
%TO.P,U4,4,QE*%
%TO.N,Net-(U4-QE)*%
X154380000Y-113340000D03*
%TO.P,U4,5,QF*%
%TO.N,Net-(U4-QF)*%
X154380000Y-115880000D03*
%TO.P,U4,6,QG*%
%TO.N,Net-(U3-ON{slash}OFF)*%
X154380000Y-118420000D03*
%TO.P,U4,7,QH*%
%TO.N,Net-(U2-ON{slash}OFF)*%
X154380000Y-120960000D03*
%TO.P,U4,8,GND*%
%TO.N,GND*%
X154380000Y-123500000D03*
%TO.P,U4,9,QH'*%
%TO.N,Net-(J2-Pin_7)*%
X162000000Y-123500000D03*
%TO.P,U4,10,~{SRCLR}*%
%TO.N,+3.3VA*%
X162000000Y-120960000D03*
%TO.P,U4,11,SRCLK*%
%TO.N,Net-(J2-Pin_6)*%
X162000000Y-118420000D03*
%TO.P,U4,12,RCLK*%
%TO.N,Net-(J2-Pin_5)*%
X162000000Y-115880000D03*
%TO.P,U4,13,~{OE}*%
%TO.N,GND*%
X162000000Y-113340000D03*
%TO.P,U4,14,SER*%
%TO.N,Net-(U1-GPIO23)*%
X162000000Y-110800000D03*
%TO.P,U4,15,QA*%
%TO.N,Net-(U4-QA)*%
X162000000Y-108260000D03*
%TO.P,U4,16,VCC*%
%TO.N,+3.3VA*%
X162000000Y-105720000D03*
%TD*%
D13*
%TO.P,R7,1*%
%TO.N,Net-(U4-QF)*%
X147000000Y-122100000D03*
%TO.P,R7,2*%
%TO.N,+5VA*%
X147000000Y-125200000D03*
%TD*%
D21*
%TO.P,U6,1*%
%TO.N,Net-(J2-Pin_8)*%
X134620000Y-105695000D03*
D20*
%TO.P,U6,2*%
%TO.N,Net-(J3-Pin_5)*%
X132080000Y-105695000D03*
%TO.P,U6,3*%
%TO.N,Net-(J3-Pin_6)*%
X129540000Y-105695000D03*
%TO.P,U6,4*%
%TO.N,Net-(J2-Pin_9)*%
X127000000Y-105695000D03*
%TO.P,U6,5*%
%TO.N,Net-(U4-QD)*%
X124460000Y-105695000D03*
%TO.P,U6,6*%
%TO.N,Net-(U4-QC)*%
X121920000Y-105695000D03*
%TO.P,U6,7,V_{SS}*%
%TO.N,GND*%
X119380000Y-105695000D03*
%TO.P,U6,8*%
%TO.N,Net-(J2-Pin_8)*%
X119380000Y-113315000D03*
%TO.P,U6,9*%
%TO.N,Net-(J3-Pin_7)*%
X121920000Y-113315000D03*
%TO.P,U6,10*%
%TO.N,Net-(J3-Pin_8)*%
X124460000Y-113315000D03*
%TO.P,U6,11*%
%TO.N,Net-(J2-Pin_9)*%
X127000000Y-113315000D03*
%TO.P,U6,12*%
%TO.N,Net-(U4-QC)*%
X129540000Y-113315000D03*
%TO.P,U6,13*%
%TO.N,Net-(U4-QD)*%
X132080000Y-113315000D03*
%TO.P,U6,14,V_{DD}*%
%TO.N,+5VA*%
X134620000Y-113315000D03*
%TD*%
D16*
%TO.P,C8,1*%
%TO.N,+5VA*%
X140000000Y-113287500D03*
%TO.P,C8,2*%
%TO.N,GND*%
X140000000Y-111212500D03*
%TD*%
D13*
%TO.P,R4,1*%
%TO.N,Net-(J1-Pin_4)*%
X158000000Y-94950000D03*
%TO.P,R4,2*%
%TO.N,+3.3VA*%
X158000000Y-98050000D03*
%TD*%
%TO.P,R9,1*%
%TO.N,Net-(U4-QD)*%
X143750000Y-110162500D03*
%TO.P,R9,2*%
%TO.N,+5VA*%
X143750000Y-113262500D03*
%TD*%
D14*
%TO.P,R6,1*%
%TO.N,GND*%
X113000000Y-84800000D03*
%TO.P,R6,2*%
%TO.N,Net-(5v in1-CC2)*%
X113000000Y-81700000D03*
%TD*%
D22*
%TO.P,J2,1,Pin_1*%
%TO.N,+3.3VA*%
X202250000Y-103990000D03*
D23*
%TO.P,J2,2,Pin_2*%
%TO.N,GND*%
X202250000Y-101450000D03*
%TO.P,J2,3,Pin_3*%
%TO.N,Net-(J2-Pin_3)*%
X202250000Y-98910000D03*
%TO.P,J2,4,Pin_4*%
%TO.N,Net-(J2-Pin_4)*%
X202250000Y-96370000D03*
%TO.P,J2,5,Pin_5*%
%TO.N,Net-(J2-Pin_5)*%
X202250000Y-93830000D03*
%TO.P,J2,6,Pin_6*%
%TO.N,Net-(J2-Pin_6)*%
X202250000Y-91290000D03*
%TO.P,J2,7,Pin_7*%
%TO.N,Net-(J2-Pin_7)*%
X202250000Y-88750000D03*
%TO.P,J2,8,Pin_8*%
%TO.N,Net-(J2-Pin_8)*%
X202250000Y-86210000D03*
%TO.P,J2,9,Pin_9*%
%TO.N,Net-(J2-Pin_9)*%
X202250000Y-83670000D03*
%TO.P,J2,10,Pin_10*%
%TO.N,+5VA*%
X202250000Y-81130000D03*
%TD*%
D24*
%TO.P,DPDT1,1,A*%
%TO.N,GND*%
X198250000Y-72100000D03*
%TO.P,DPDT1,2,B*%
%TO.N,Net-(5v in1-GND_A)*%
X195750000Y-72100000D03*
%TO.P,DPDT1,3,C*%
%TO.N,unconnected-(DPDT1-C-Pad3)*%
X193250000Y-72100000D03*
%TO.P,DPDT1,4,C*%
%TO.N,+5VA*%
X198250000Y-75400000D03*
%TO.P,DPDT1,5,B*%
%TO.N,Net-(5v in1-VBUS_A)*%
X195750000Y-75400000D03*
%TO.P,DPDT1,6,A*%
%TO.N,unconnected-(DPDT1-A-Pad6)*%
X193250000Y-75400000D03*
%TD*%
D25*
%TO.P,J1,1,Pin_1*%
%TO.N,Net-(J1-Pin_1)*%
X145000000Y-75500000D03*
D26*
%TO.P,J1,2,Pin_2*%
%TO.N,GND*%
X147500000Y-80500000D03*
%TO.P,J1,3,Pin_3*%
%TO.N,Net-(J1-Pin_3)*%
X150000000Y-75500000D03*
%TO.P,J1,4,Pin_4*%
%TO.N,Net-(J1-Pin_4)*%
X152500000Y-80500000D03*
%TO.P,J1,5,Pin_5*%
%TO.N,GND*%
X155000000Y-75500000D03*
%TO.P,J1,6,Pin_6*%
%TO.N,Net-(J1-Pin_6)*%
X157500000Y-80500000D03*
%TO.P,J1,7,Pin_7*%
%TO.N,Net-(5v in1-GND_A)*%
X160000000Y-75500000D03*
%TO.P,J1,8,Pin_8*%
%TO.N,Net-(5v in1-VBUS_A)*%
X162500000Y-80500000D03*
%TD*%
D27*
%TO.P,C4,1*%
%TO.N,+5VA*%
X203705113Y-118250000D03*
D20*
%TO.P,C4,2*%
%TO.N,GND*%
X201205113Y-118250000D03*
%TD*%
D28*
%TO.P,5v in1,A5,CC1*%
%TO.N,Net-(5v in1-CC1)*%
X115500000Y-76780000D03*
D29*
%TO.P,5v in1,A9,VBUS_A*%
%TO.N,Net-(5v in1-VBUS_A)*%
X113480000Y-76780000D03*
D30*
%TO.P,5v in1,A12,GND_A*%
%TO.N,Net-(5v in1-GND_A)*%
X112250000Y-76780000D03*
D28*
%TO.P,5v in1,B5,CC2*%
%TO.N,Net-(5v in1-CC2)*%
X114500000Y-76780000D03*
D29*
%TO.P,5v in1,B9,VBUS_B*%
%TO.N,unconnected-(5v in1-VBUS_B-PadB9)*%
X116520000Y-76780000D03*
D30*
%TO.P,5v in1,B12,GND_B*%
%TO.N,unconnected-(5v in1-GND_B-PadB12)*%
X117750000Y-76780000D03*
D31*
%TO.P,5v in1,SH1,SHIELD*%
%TO.N,unconnected-(5v in1-SHIELD-PadSH1)*%
X119320000Y-76700000D03*
%TO.P,5v in1,SH2,SHIELD__1*%
%TO.N,unconnected-(5v in1-SHIELD__1-PadSH2)*%
X110680000Y-76700000D03*
%TO.P,5v in1,SH3,SHIELD__2*%
%TO.N,unconnected-(5v in1-SHIELD__2-PadSH3)*%
X119320000Y-72900000D03*
%TO.P,5v in1,SH4,SHIELD__3*%
%TO.N,unconnected-(5v in1-SHIELD__3-PadSH4)*%
X110680000Y-72900000D03*
%TD*%
D27*
%TO.P,C3,1*%
%TO.N,+3.3VA*%
X203705113Y-111750000D03*
D20*
%TO.P,C3,2*%
%TO.N,GND*%
X201205113Y-111750000D03*
%TD*%
D25*
%TO.P,J3,1,Pin_1*%
%TO.N,Net-(J3-Pin_1)*%
X102250000Y-113500000D03*
D26*
%TO.P,J3,2,Pin_2*%
%TO.N,Net-(J3-Pin_2)*%
X107250000Y-111000000D03*
%TO.P,J3,3,Pin_3*%
%TO.N,Net-(J3-Pin_3)*%
X102250000Y-108500000D03*
%TO.P,J3,4,Pin_4*%
%TO.N,Net-(J3-Pin_4)*%
X107250000Y-106000000D03*
%TO.P,J3,5,Pin_5*%
%TO.N,Net-(J3-Pin_5)*%
X102250000Y-103500000D03*
%TO.P,J3,6,Pin_6*%
%TO.N,Net-(J3-Pin_6)*%
X107250000Y-101000000D03*
%TO.P,J3,7,Pin_7*%
%TO.N,Net-(J3-Pin_7)*%
X102250000Y-98500000D03*
%TO.P,J3,8,Pin_8*%
%TO.N,Net-(J3-Pin_8)*%
X107250000Y-96000000D03*
%TO.P,J3,9,Pin_9*%
%TO.N,Net-(J3-Pin_9)*%
X102250000Y-93500000D03*
%TO.P,J3,10,Pin_10*%
%TO.N,Net-(J3-Pin_10)*%
X107250000Y-91000000D03*
%TO.P,J3,11,Pin_11*%
%TO.N,Net-(J3-Pin_11)*%
X102250000Y-88500000D03*
%TO.P,J3,12,Pin_12*%
%TO.N,Net-(J3-Pin_12)*%
X107250000Y-86000000D03*
%TD*%
D21*
%TO.P,U5,1*%
%TO.N,Net-(J2-Pin_8)*%
X134620000Y-117595000D03*
D20*
%TO.P,U5,2*%
%TO.N,Net-(J3-Pin_1)*%
X132080000Y-117595000D03*
%TO.P,U5,3*%
%TO.N,Net-(J3-Pin_2)*%
X129540000Y-117595000D03*
%TO.P,U5,4*%
%TO.N,Net-(J2-Pin_9)*%
X127000000Y-117595000D03*
%TO.P,U5,5*%
%TO.N,Net-(U4-QF)*%
X124460000Y-117595000D03*
%TO.P,U5,6*%
%TO.N,Net-(U4-QE)*%
X121920000Y-117595000D03*
%TO.P,U5,7,V_{SS}*%
%TO.N,GND*%
X119380000Y-117595000D03*
%TO.P,U5,8*%
%TO.N,Net-(J2-Pin_8)*%
X119380000Y-125215000D03*
%TO.P,U5,9*%
%TO.N,Net-(J3-Pin_3)*%
X121920000Y-125215000D03*
%TO.P,U5,10*%
%TO.N,Net-(J3-Pin_4)*%
X124460000Y-125215000D03*
%TO.P,U5,11*%
%TO.N,Net-(J2-Pin_9)*%
X127000000Y-125215000D03*
%TO.P,U5,12*%
%TO.N,Net-(U4-QE)*%
X129540000Y-125215000D03*
%TO.P,U5,13*%
%TO.N,Net-(U4-QF)*%
X132080000Y-125215000D03*
%TO.P,U5,14,V_{DD}*%
%TO.N,+5VA*%
X134620000Y-125215000D03*
%TD*%
D16*
%TO.P,C7,1*%
%TO.N,+5VA*%
X140000000Y-125187500D03*
%TO.P,C7,2*%
%TO.N,GND*%
X140000000Y-123112500D03*
%TD*%
D14*
%TO.P,R5,1*%
%TO.N,GND*%
X118000000Y-84800000D03*
%TO.P,R5,2*%
%TO.N,Net-(5v in1-CC1)*%
X118000000Y-81700000D03*
%TD*%
D13*
%TO.P,R10,1*%
%TO.N,Net-(U4-QC)*%
X147000000Y-110200000D03*
%TO.P,R10,2*%
%TO.N,+5VA*%
X147000000Y-113300000D03*
%TD*%
D32*
%TO.P,U1,1,3V3*%
%TO.N,+3.3VA*%
X193996320Y-126217280D03*
D33*
%TO.P,U1,2,CHIP_PU*%
%TO.N,unconnected-(U1-CHIP_PU-Pad2)*%
X193996320Y-123677280D03*
%TO.P,U1,3,SENSOR_VP/GPIO36/ADC1_CH0*%
%TO.N,unconnected-(U1-SENSOR_VP{slash}GPIO36{slash}ADC1_CH0-Pad3)*%
X193996320Y-121137280D03*
%TO.P,U1,4,SENSOR_VN/GPIO39/ADC1_CH3*%
%TO.N,unconnected-(U1-SENSOR_VN{slash}GPIO39{slash}ADC1_CH3-Pad4)*%
X193996320Y-118597280D03*
%TO.P,U1,5,VDET_1/GPIO34/ADC1_CH6*%
%TO.N,unconnected-(U1-VDET_1{slash}GPIO34{slash}ADC1_CH6-Pad5)*%
X193996320Y-116057280D03*
%TO.P,U1,6,VDET_2/GPIO35/ADC1_CH7*%
%TO.N,unconnected-(U1-VDET_2{slash}GPIO35{slash}ADC1_CH7-Pad6)*%
X193996320Y-113517280D03*
%TO.P,U1,7,32K_XP/GPIO32/ADC1_CH4*%
%TO.N,unconnected-(U1-32K_XP{slash}GPIO32{slash}ADC1_CH4-Pad7)*%
X193996320Y-110977280D03*
%TO.P,U1,8,32K_XN/GPIO33/ADC1_CH5*%
%TO.N,unconnected-(U1-32K_XN{slash}GPIO33{slash}ADC1_CH5-Pad8)*%
X193996320Y-108437280D03*
%TO.P,U1,9,DAC_1/ADC2_CH8/GPIO25*%
%TO.N,Net-(J2-Pin_3)*%
X193996320Y-105897280D03*
%TO.P,U1,10,DAC_2/ADC2_CH9/GPIO26*%
%TO.N,Net-(J2-Pin_4)*%
X193996320Y-103357280D03*
%TO.P,U1,11,ADC2_CH7/GPIO27*%
%TO.N,unconnected-(U1-ADC2_CH7{slash}GPIO27-Pad11)*%
X193996320Y-100817280D03*
%TO.P,U1,12,MTMS/GPIO14/ADC2_CH6*%
%TO.N,Net-(J1-Pin_4)*%
X193996320Y-98277280D03*
%TO.P,U1,13,MTDI/GPIO12/ADC2_CH5*%
%TO.N,unconnected-(U1-MTDI{slash}GPIO12{slash}ADC2_CH5-Pad13)*%
X193996320Y-95737280D03*
%TO.P,U1,14,GND*%
%TO.N,GND*%
X193996320Y-93197280D03*
%TO.P,U1,15,MTCK/GPIO13/ADC2_CH4*%
%TO.N,Net-(J1-Pin_1)*%
X193996320Y-90657280D03*
%TO.P,U1,16,SD_DATA2/GPIO9*%
%TO.N,unconnected-(U1-SD_DATA2{slash}GPIO9-Pad16)*%
X193996320Y-88117280D03*
%TO.P,U1,17,SD_DATA3/GPIO10*%
%TO.N,unconnected-(U1-SD_DATA3{slash}GPIO10-Pad17)*%
X193996320Y-85577280D03*
%TO.P,U1,18,CMD*%
%TO.N,unconnected-(U1-CMD-Pad18)*%
X193996320Y-83037280D03*
%TO.P,U1,19,5V*%
%TO.N,+5VA*%
X193996320Y-80497280D03*
%TO.P,U1,20,SD_CLK/GPIO6*%
%TO.N,unconnected-(U1-SD_CLK{slash}GPIO6-Pad20)*%
X171000000Y-80500000D03*
%TO.P,U1,21,SD_DATA0/GPIO7*%
%TO.N,unconnected-(U1-SD_DATA0{slash}GPIO7-Pad21)*%
X171000000Y-83040000D03*
%TO.P,U1,22,SD_DATA1/GPIO8*%
%TO.N,unconnected-(U1-SD_DATA1{slash}GPIO8-Pad22)*%
X170996320Y-85577280D03*
%TO.P,U1,23,MTDO/GPIO15/ADC2_CH3*%
%TO.N,unconnected-(U1-MTDO{slash}GPIO15{slash}ADC2_CH3-Pad23)*%
X170996320Y-88117280D03*
%TO.P,U1,24,ADC2_CH2/GPIO2*%
%TO.N,unconnected-(U1-ADC2_CH2{slash}GPIO2-Pad24)*%
X170996320Y-90657280D03*
%TO.P,U1,25,GPIO0/BOOT/ADC2_CH1*%
%TO.N,unconnected-(U1-GPIO0{slash}BOOT{slash}ADC2_CH1-Pad25)*%
X170996320Y-93197280D03*
%TO.P,U1,26,ADC2_CH0/GPIO4*%
%TO.N,unconnected-(U1-ADC2_CH0{slash}GPIO4-Pad26)*%
X170996320Y-95737280D03*
%TO.P,U1,27,GPIO16*%
%TO.N,unconnected-(U1-GPIO16-Pad27)*%
X170996320Y-98277280D03*
%TO.P,U1,28,GPIO17*%
%TO.N,Net-(SMX1-Pin_3)*%
X170996320Y-100817280D03*
%TO.P,U1,29,GPIO5*%
%TO.N,unconnected-(U1-GPIO5-Pad29)*%
X170996320Y-103357280D03*
%TO.P,U1,30,GPIO18*%
%TO.N,unconnected-(U1-GPIO18-Pad30)*%
X170996320Y-105897280D03*
%TO.P,U1,31,GPIO19*%
%TO.N,unconnected-(U1-GPIO19-Pad31)*%
X170996320Y-108437280D03*
%TO.P,U1,32,GND*%
%TO.N,GND*%
X170996320Y-110977280D03*
%TO.P,U1,33,GPIO21*%
%TO.N,Net-(J2-Pin_6)*%
X170996320Y-113517280D03*
%TO.P,U1,34,U0RXD/GPIO3*%
%TO.N,unconnected-(U1-U0RXD{slash}GPIO3-Pad34)*%
X170996320Y-116057280D03*
%TO.P,U1,35,U0TXD/GPIO1*%
%TO.N,unconnected-(U1-U0TXD{slash}GPIO1-Pad35)*%
X170996320Y-118597280D03*
%TO.P,U1,36,GPIO22*%
%TO.N,Net-(J2-Pin_5)*%
X170996320Y-121137280D03*
%TO.P,U1,37,GPIO23*%
%TO.N,Net-(U1-GPIO23)*%
X170996320Y-123677280D03*
%TO.P,U1,38,GND*%
%TO.N,GND*%
X170996320Y-126217280D03*
%TD*%
D21*
%TO.P,U7,1*%
%TO.N,Net-(J2-Pin_8)*%
X134620000Y-94195000D03*
D20*
%TO.P,U7,2*%
%TO.N,Net-(J3-Pin_9)*%
X132080000Y-94195000D03*
%TO.P,U7,3*%
%TO.N,Net-(J3-Pin_10)*%
X129540000Y-94195000D03*
%TO.P,U7,4*%
%TO.N,Net-(J2-Pin_9)*%
X127000000Y-94195000D03*
%TO.P,U7,5*%
%TO.N,Net-(U4-QB)*%
X124460000Y-94195000D03*
%TO.P,U7,6*%
%TO.N,Net-(U4-QA)*%
X121920000Y-94195000D03*
%TO.P,U7,7,V_{SS}*%
%TO.N,GND*%
X119380000Y-94195000D03*
%TO.P,U7,8*%
%TO.N,Net-(J2-Pin_8)*%
X119380000Y-101815000D03*
%TO.P,U7,9*%
%TO.N,Net-(J3-Pin_11)*%
X121920000Y-101815000D03*
%TO.P,U7,10*%
%TO.N,Net-(J3-Pin_12)*%
X124460000Y-101815000D03*
%TO.P,U7,11*%
%TO.N,Net-(J2-Pin_9)*%
X127000000Y-101815000D03*
%TO.P,U7,12*%
%TO.N,Net-(U4-QA)*%
X129540000Y-101815000D03*
%TO.P,U7,13*%
%TO.N,Net-(U4-QB)*%
X132080000Y-101815000D03*
%TO.P,U7,14,V_{DD}*%
%TO.N,+5VA*%
X134620000Y-101815000D03*
%TD*%
D11*
%TO.P,C1,1*%
%TO.N,GND*%
X129462500Y-89500000D03*
%TO.P,C1,2*%
%TO.N,+5VA*%
X131537500Y-89500000D03*
%TD*%
D13*
%TO.P,R11,1*%
%TO.N,Net-(U4-QB)*%
X143750000Y-98450000D03*
%TO.P,R11,2*%
%TO.N,+5VA*%
X143750000Y-101550000D03*
%TD*%
%TO.P,R12,1*%
%TO.N,Net-(U4-QA)*%
X147000000Y-98450000D03*
%TO.P,R12,2*%
%TO.N,+5VA*%
X147000000Y-101550000D03*
%TD*%
D34*
%TO.N,GND*%
X141000000Y-97500000D03*
X141750000Y-111750000D03*
X134500000Y-83250000D03*
X126500000Y-83250000D03*
X115250000Y-85250000D03*
X157250000Y-102750000D03*
X140000000Y-120400000D03*
X132750000Y-87250000D03*
X127750000Y-91250000D03*
%TO.N,Net-(U4-QA)*%
X152175898Y-100074102D03*
X150196210Y-100640000D03*
X159848603Y-106598603D03*
%TO.N,Net-(U4-QB)*%
X149500000Y-102500000D03*
X130432525Y-99932525D03*
X143655025Y-96094975D03*
%TO.N,Net-(U4-QC)*%
X151264975Y-109235025D03*
X150274318Y-110225682D03*
%TO.N,Net-(U4-QD)*%
X149764975Y-107735025D03*
X130432525Y-111432525D03*
X145000000Y-107000000D03*
%TO.N,Net-(U4-QE)*%
X151050999Y-118219051D03*
X148850000Y-118500000D03*
%TO.N,Net-(U4-QF)*%
X148850000Y-120250000D03*
X130182525Y-123582525D03*
X151051000Y-120250000D03*
%TO.N,Net-(U2-ON{slash}OFF)*%
X137000000Y-108000000D03*
X137000000Y-111250000D03*
X130000000Y-92394000D03*
X137500000Y-102600000D03*
%TO.N,Net-(U3-ON{slash}OFF)*%
X139390000Y-83000000D03*
X141250000Y-84000000D03*
X141000000Y-90437103D03*
X142000000Y-102600000D03*
%TO.N,Net-(J1-Pin_1)*%
X191875000Y-89050000D03*
X166017161Y-85517161D03*
X164000000Y-84000000D03*
%TO.N,Net-(J1-Pin_4)*%
X158250000Y-92700000D03*
X188874293Y-97124293D03*
X186907922Y-96907922D03*
X158494368Y-90437103D03*
%TO.N,Net-(J1-Pin_6)*%
X140750000Y-87250000D03*
X134000000Y-87250000D03*
%TO.N,Net-(J1-Pin_3)*%
X135500000Y-77750000D03*
X139250000Y-77750000D03*
%TO.N,Net-(J2-Pin_6)*%
X173374293Y-112624293D03*
%TO.N,Net-(J2-Pin_9)*%
X130127475Y-122272525D03*
X162887136Y-89637136D03*
X142750000Y-92250000D03*
X125250000Y-98750000D03*
X130000000Y-110000000D03*
X142750000Y-90250000D03*
X158000000Y-88750000D03*
%TO.N,Net-(J2-Pin_7)*%
X167750000Y-120860000D03*
X166250000Y-122500000D03*
%TO.N,Net-(J2-Pin_8)*%
X150500000Y-95500000D03*
X131432525Y-110432525D03*
X160599000Y-92000000D03*
X133425667Y-114045463D03*
X126500000Y-92339723D03*
X133000000Y-92394000D03*
X162000000Y-92000000D03*
X118000000Y-116556025D03*
X148500000Y-95000000D03*
X137000000Y-99500000D03*
X116293975Y-106706025D03*
X129000000Y-91694000D03*
%TO.N,Net-(J2-Pin_5)*%
X164500000Y-119120000D03*
X164500000Y-117500000D03*
%TO.N,Net-(J3-Pin_9)*%
X127127475Y-95872525D03*
X122476103Y-96023897D03*
%TO.N,Net-(J3-Pin_10)*%
X123467193Y-93039723D03*
%TO.N,Net-(SMX1-Pin_3)*%
X141250000Y-82500000D03*
X151000000Y-89750000D03*
X139390000Y-81000000D03*
X152000000Y-92700000D03*
%TD*%
D35*
%TO.N,+5VA*%
X147000000Y-125112500D02*
X143787500Y-125112500D01*
X194629040Y-81130000D02*
X193996320Y-80497280D01*
X137287500Y-89500000D02*
X137537500Y-89500000D01*
X134735000Y-101700000D02*
X134620000Y-101815000D01*
X137287500Y-87300000D02*
X138137500Y-86450000D01*
X149750000Y-122462500D02*
X147000000Y-125212500D01*
X131301000Y-82649000D02*
X133700000Y-80250000D01*
X147000000Y-101540000D02*
X152369002Y-101540000D01*
X190243600Y-84250000D02*
X166011529Y-84250000D01*
X139500000Y-113200000D02*
X143790000Y-113200000D01*
X130774810Y-86450000D02*
X131301000Y-85923810D01*
X166011529Y-84250000D02*
X158924426Y-91337103D01*
X157500000Y-106670998D02*
X152414501Y-101585499D01*
X143750000Y-125150000D02*
X140050000Y-125150000D01*
X149500000Y-98670998D02*
X149500000Y-92587103D01*
X134735000Y-113200000D02*
X134620000Y-113315000D01*
X148250000Y-91337103D02*
X139374603Y-91337103D01*
X140050000Y-125150000D02*
X140000000Y-125100000D01*
X139500000Y-101700000D02*
X134735000Y-101700000D01*
X134960000Y-74960000D02*
X134960000Y-74250000D01*
X130137500Y-86450000D02*
X130774810Y-86450000D01*
X133700000Y-80250000D02*
X130800000Y-80250000D01*
X156787500Y-125212500D02*
X147000000Y-125212500D01*
X147000000Y-113212500D02*
X143787500Y-113212500D01*
X202250000Y-81130000D02*
X205006113Y-83886113D01*
X130137500Y-86450000D02*
X130137500Y-88100000D01*
X137537500Y-89500000D02*
X139374603Y-91337103D01*
X143787500Y-125112500D02*
X143750000Y-125150000D01*
X193996320Y-79653680D02*
X193996320Y-80497280D01*
X138137500Y-86450000D02*
X138799999Y-86450000D01*
X205006113Y-116949000D02*
X203705113Y-118250000D01*
X139500000Y-101700000D02*
X143840000Y-101700000D01*
X202250000Y-81130000D02*
X194629040Y-81130000D01*
X148250000Y-91337103D02*
X158924426Y-91337103D01*
X149750000Y-115790000D02*
X149750000Y-122462500D01*
X131301000Y-85923810D02*
X131301000Y-82649000D01*
X149750000Y-115790000D02*
X147000000Y-113040000D01*
X152369002Y-101540000D02*
X152414501Y-101585499D01*
X149500000Y-92587103D02*
X148250000Y-91337103D01*
X138799999Y-86450000D02*
X140290000Y-84959999D01*
X147000000Y-101550000D02*
X143750000Y-101550000D01*
X139500000Y-113200000D02*
X134735000Y-113200000D01*
X134735000Y-125100000D02*
X134620000Y-125215000D01*
X138262500Y-86575000D02*
X138137500Y-86450000D01*
X149500000Y-98670998D02*
X152414501Y-101585499D01*
X140000000Y-125100000D02*
X134735000Y-125100000D01*
X134960000Y-74734207D02*
X134960000Y-74250000D01*
X198250000Y-75400000D02*
X193996320Y-79653680D01*
X193996320Y-80497280D02*
X190243600Y-84250000D01*
X140290000Y-84959999D02*
X140290000Y-80064207D01*
X137287500Y-89500000D02*
X137287500Y-87300000D01*
X157500000Y-124500000D02*
X156787500Y-125212500D01*
X157500000Y-124500000D02*
X157500000Y-106670998D01*
X140290000Y-80064207D02*
X134960000Y-74734207D01*
X205006113Y-83886113D02*
X205006113Y-116949000D01*
X130137500Y-88100000D02*
X131537500Y-89500000D01*
D36*
%TO.N,GND*%
X135000000Y-89500000D02*
X132750000Y-87250000D01*
X158500000Y-101500000D02*
X157250000Y-102750000D01*
X160212500Y-101500000D02*
X158500000Y-101500000D01*
X129462500Y-89500000D02*
X129462500Y-89537500D01*
X135800000Y-84550000D02*
X134500000Y-83250000D01*
X127862500Y-84550000D02*
X127800000Y-84550000D01*
X115700000Y-84800000D02*
X115250000Y-85250000D01*
X129462500Y-89537500D02*
X127750000Y-91250000D01*
X140000000Y-111212500D02*
X141212500Y-111212500D01*
X135862500Y-84550000D02*
X135800000Y-84550000D01*
X140000000Y-99500000D02*
X140000000Y-98500000D01*
X113000000Y-84800000D02*
X114800000Y-84800000D01*
X135212500Y-89500000D02*
X135000000Y-89500000D01*
X140000000Y-98500000D02*
X141000000Y-97500000D01*
X127800000Y-84550000D02*
X126500000Y-83250000D01*
X114800000Y-84800000D02*
X115250000Y-85250000D01*
X135212500Y-89250000D02*
X134750000Y-89250000D01*
X140000000Y-123112500D02*
X140000000Y-120400000D01*
X141212500Y-111212500D02*
X141750000Y-111750000D01*
X118000000Y-84800000D02*
X115700000Y-84800000D01*
D35*
%TO.N,+3.3VA*%
X196750000Y-123463600D02*
X196750000Y-118750000D01*
X162250000Y-98050000D02*
X158000000Y-98050000D01*
X196750000Y-118750000D02*
X203705113Y-111794887D01*
X193996320Y-126217280D02*
X196750000Y-123463600D01*
X162000000Y-101787500D02*
X162287500Y-101500000D01*
X171829649Y-124801000D02*
X159801000Y-124801000D01*
X159801000Y-124801000D02*
X159000000Y-124000000D01*
X162287500Y-101500000D02*
X162287500Y-98087500D01*
X203705113Y-111455113D02*
X202250000Y-110000000D01*
X172497320Y-124000000D02*
X172497320Y-124133329D01*
X202250000Y-110000000D02*
X202250000Y-103990000D01*
X162000000Y-105720000D02*
X162000000Y-101787500D01*
X159000000Y-108720000D02*
X162000000Y-105720000D01*
X172497320Y-124133329D02*
X171829649Y-124801000D01*
X203705113Y-111750000D02*
X203705113Y-111455113D01*
X195750000Y-119750000D02*
X176747320Y-119750000D01*
X162000000Y-120960000D02*
X159000000Y-117960000D01*
X196750000Y-118750000D02*
X195750000Y-119750000D01*
X159000000Y-117960000D02*
X159000000Y-124000000D01*
X162287500Y-98087500D02*
X162250000Y-98050000D01*
X158000000Y-98050000D02*
X153500000Y-98050000D01*
X159000000Y-117960000D02*
X159000000Y-108720000D01*
X203705113Y-111794887D02*
X203705113Y-111750000D01*
X176747320Y-119750000D02*
X172497320Y-124000000D01*
D36*
%TO.N,Net-(J3-Pin_5)*%
X111732618Y-99859000D02*
X105891000Y-99859000D01*
X115373618Y-103500000D02*
X111732618Y-99859000D01*
X105891000Y-99859000D02*
X102250000Y-103500000D01*
X129885000Y-103500000D02*
X115373618Y-103500000D01*
X132080000Y-105695000D02*
X129885000Y-103500000D01*
%TO.N,Net-(J3-Pin_3)*%
X120819000Y-126316000D02*
X111245912Y-126316000D01*
X99448000Y-114518088D02*
X99448000Y-111302000D01*
X99448000Y-111302000D02*
X102250000Y-108500000D01*
X111245912Y-126316000D02*
X99448000Y-114518088D01*
X121920000Y-125215000D02*
X120819000Y-126316000D01*
%TO.N,Net-(J3-Pin_6)*%
X109300000Y-101000000D02*
X106750000Y-101000000D01*
X128045000Y-104200000D02*
X112500000Y-104200000D01*
X129540000Y-105695000D02*
X128045000Y-104200000D01*
X112500000Y-104200000D02*
X109300000Y-101000000D01*
%TO.N,Net-(U2-R1{slash}C1)*%
X130137500Y-84550000D02*
X127700000Y-82112500D01*
X127700000Y-82112500D02*
X127700000Y-80250000D01*
%TO.N,Net-(U3-R1{slash}C1)*%
X138137500Y-84550000D02*
X136800000Y-83212500D01*
X136800000Y-83212500D02*
X136800000Y-80250000D01*
%TO.N,Net-(U4-QA)*%
X136605000Y-94750000D02*
X129540000Y-101815000D01*
X147000000Y-98500000D02*
X147000000Y-98450000D01*
X149528106Y-99971896D02*
X148471896Y-99971896D01*
X150196210Y-100640000D02*
X149528106Y-99971896D01*
X129540000Y-101815000D02*
X121920000Y-94195000D01*
X152175898Y-100074102D02*
X158700399Y-106598603D01*
X143300000Y-94750000D02*
X136605000Y-94750000D01*
X158700399Y-106598603D02*
X159848603Y-106598603D01*
X147000000Y-98450000D02*
X143300000Y-94750000D01*
X148471896Y-99971896D02*
X147000000Y-98500000D01*
%TO.N,Net-(U4-QB)*%
X137096000Y-96799000D02*
X132080000Y-101815000D01*
X143750000Y-98450000D02*
X142099000Y-96799000D01*
X143750000Y-96189950D02*
X143750000Y-98450000D01*
X143655025Y-96094975D02*
X143750000Y-96189950D01*
X130432525Y-99932525D02*
X130197525Y-99932525D01*
X154380000Y-105720000D02*
X152720000Y-105720000D01*
X152720000Y-105720000D02*
X149500000Y-102500000D01*
X130197525Y-99932525D02*
X124460000Y-94195000D01*
X142099000Y-96799000D02*
X137096000Y-96799000D01*
%TO.N,Net-(U4-QC)*%
X129540000Y-113315000D02*
X121920000Y-105695000D01*
X150248636Y-110200000D02*
X147000000Y-110200000D01*
X150274318Y-110225682D02*
X150248636Y-110200000D01*
X147000000Y-110200000D02*
X147000000Y-108008636D01*
X147000000Y-108008636D02*
X145290364Y-106299000D01*
X133855000Y-109000000D02*
X129540000Y-113315000D01*
X142458050Y-106299000D02*
X139757050Y-109000000D01*
X154380000Y-108260000D02*
X152240000Y-108260000D01*
X139757050Y-109000000D02*
X133855000Y-109000000D01*
X145290364Y-106299000D02*
X142458050Y-106299000D01*
X152240000Y-108260000D02*
X151264975Y-109235025D01*
%TO.N,Net-(U4-QD)*%
X135232500Y-110162500D02*
X132080000Y-113315000D01*
X154380000Y-110800000D02*
X151838586Y-110800000D01*
X149764975Y-108726389D02*
X149764975Y-107735025D01*
X144052613Y-110162500D02*
X143750000Y-110162500D01*
X145000000Y-107000000D02*
X145000000Y-109215113D01*
X145000000Y-109215113D02*
X144052613Y-110162500D01*
X130432525Y-111432525D02*
X130197525Y-111432525D01*
X151838586Y-110800000D02*
X149764975Y-108726389D01*
X130197525Y-111432525D02*
X124460000Y-105695000D01*
X143750000Y-110162500D02*
X135232500Y-110162500D01*
%TO.N,Net-(U4-QE)*%
X151250000Y-116470000D02*
X154380000Y-113340000D01*
X129540000Y-125215000D02*
X121920000Y-117595000D01*
X147387500Y-118500000D02*
X148850000Y-118500000D01*
X135105000Y-119650000D02*
X129540000Y-125215000D01*
X143750000Y-122137500D02*
X147387500Y-118500000D01*
X151050999Y-118199001D02*
X151250000Y-118000000D01*
X143750000Y-122137500D02*
X141262500Y-119650000D01*
X151250000Y-118000000D02*
X151250000Y-116470000D01*
X151050999Y-118219051D02*
X151050999Y-118199001D01*
X141262500Y-119650000D02*
X135105000Y-119650000D01*
%TO.N,Net-(U4-QF)*%
X147000000Y-122100000D02*
X148850000Y-120250000D01*
X151250000Y-120051000D02*
X151250000Y-119010000D01*
X145099000Y-124001000D02*
X147000000Y-122100000D01*
X148850000Y-120250000D02*
X148850000Y-120350000D01*
X133294000Y-124001000D02*
X132080000Y-125215000D01*
X130182525Y-123582525D02*
X130182525Y-123317525D01*
X151051000Y-120250000D02*
X151250000Y-120051000D01*
X151250000Y-119010000D02*
X154380000Y-115880000D01*
X130182525Y-123317525D02*
X124460000Y-117595000D01*
X145099000Y-124001000D02*
X133294000Y-124001000D01*
%TO.N,Net-(U1-GPIO23)*%
X162000000Y-110800000D02*
X160500000Y-112300000D01*
X164500000Y-119859000D02*
X164609000Y-119859000D01*
X170996320Y-123677280D02*
X168418644Y-123677280D01*
X164600364Y-119859000D02*
X164500000Y-119859000D01*
X160500000Y-112300000D02*
X160500000Y-118609000D01*
X168418644Y-123677280D02*
X164600364Y-119859000D01*
X161750000Y-119859000D02*
X164500000Y-119859000D01*
X160500000Y-118609000D02*
X161750000Y-119859000D01*
D35*
%TO.N,Net-(5v in1-VBUS_A)*%
X193150000Y-78000000D02*
X195750000Y-75400000D01*
X165000000Y-78000000D02*
X193150000Y-78000000D01*
X162500000Y-80500000D02*
X162343540Y-80500000D01*
X113480000Y-75580000D02*
X113480000Y-76780000D01*
X123000000Y-72250000D02*
X120000000Y-75250000D01*
X154250000Y-72250000D02*
X162500000Y-80500000D01*
X123000000Y-72250000D02*
X154250000Y-72250000D01*
X162500000Y-80500000D02*
X165000000Y-78000000D01*
X120000000Y-75250000D02*
X113810000Y-75250000D01*
X113810000Y-75250000D02*
X113480000Y-75580000D01*
D36*
%TO.N,Net-(U2-ON{slash}OFF)*%
X138235089Y-106764911D02*
X138235089Y-103335089D01*
X129475001Y-85500000D02*
X130137500Y-85500000D01*
X140412160Y-112101000D02*
X137851000Y-112101000D01*
X140811160Y-112500000D02*
X140412160Y-112101000D01*
X126000000Y-90741364D02*
X126000000Y-89964968D01*
X126000000Y-89964968D02*
X129174000Y-86790968D01*
X154380000Y-120960000D02*
X150710000Y-120960000D01*
X150710000Y-120960000D02*
X150351000Y-120601000D01*
X150351000Y-114839840D02*
X147822660Y-112311500D01*
X137851000Y-112101000D02*
X137000000Y-111250000D01*
X142000000Y-112500000D02*
X140811160Y-112500000D01*
X130000000Y-92394000D02*
X127652636Y-92394000D01*
X129174000Y-86790968D02*
X129174000Y-85801001D01*
X142188500Y-112311500D02*
X142000000Y-112500000D01*
X137000000Y-108000000D02*
X138235089Y-106764911D01*
X127652636Y-92394000D02*
X126000000Y-90741364D01*
X129174000Y-85801001D02*
X129475001Y-85500000D01*
X138235089Y-103335089D02*
X137500000Y-102600000D01*
X150351000Y-120601000D02*
X150351000Y-114839840D01*
X147822660Y-112311500D02*
X142188500Y-112311500D01*
%TO.N,Net-(U3-ON{slash}OFF)*%
X139390000Y-83000000D02*
X139390000Y-84610000D01*
X140891000Y-85208941D02*
X140891000Y-84359000D01*
X138500000Y-85500000D02*
X138137500Y-85500000D01*
X139500000Y-86599940D02*
X140891000Y-85208941D01*
X139500000Y-87567100D02*
X139500000Y-86599940D01*
X154500000Y-106821000D02*
X147293900Y-106821000D01*
X154380000Y-118420000D02*
X155481000Y-117319000D01*
X147293900Y-106821000D02*
X145500000Y-105027100D01*
X141000000Y-90437103D02*
X140500000Y-89937103D01*
X155481000Y-117319000D02*
X155481000Y-107802000D01*
X140500000Y-89937103D02*
X140500000Y-88401000D01*
X144427100Y-105027100D02*
X142000000Y-102600000D01*
X140500000Y-88401000D02*
X140333900Y-88401000D01*
X140333900Y-88401000D02*
X139500000Y-87567100D01*
X155481000Y-107802000D02*
X154500000Y-106821000D01*
X140891000Y-84359000D02*
X141250000Y-84000000D01*
X139390000Y-84610000D02*
X138500000Y-85500000D01*
X145500000Y-105027100D02*
X144427100Y-105027100D01*
%TO.N,Net-(5v in1-CC1)*%
X115500000Y-78180000D02*
X118000000Y-80680000D01*
X115500000Y-77380000D02*
X115500000Y-78180000D01*
X118000000Y-80680000D02*
X118000000Y-81700000D01*
%TO.N,Net-(5v in1-CC2)*%
X113000000Y-79500000D02*
X113000000Y-81700000D01*
X114500000Y-78000000D02*
X113000000Y-79500000D01*
X114500000Y-77380000D02*
X114500000Y-78000000D01*
D35*
%TO.N,Net-(5v in1-GND_A)*%
X193901000Y-73949000D02*
X195750000Y-72100000D01*
X116830000Y-71000000D02*
X112250000Y-75580000D01*
X160000000Y-75500000D02*
X155500000Y-71000000D01*
X161551000Y-73949000D02*
X193901000Y-73949000D01*
X160000000Y-75500000D02*
X161551000Y-73949000D01*
X112250000Y-75580000D02*
X112250000Y-76780000D01*
X155500000Y-71000000D02*
X116830000Y-71000000D01*
D36*
%TO.N,Net-(J1-Pin_1)*%
X162250000Y-93652000D02*
X161299000Y-92701000D01*
X163626382Y-84000000D02*
X157126382Y-77500000D01*
X166978280Y-86478280D02*
X166017161Y-85517161D01*
X157126382Y-77500000D02*
X147000000Y-77500000D01*
X147000000Y-77500000D02*
X145000000Y-75500000D01*
X191875000Y-89050000D02*
X191800000Y-89050000D01*
X191800000Y-89050000D02*
X189228280Y-86478280D01*
X189228280Y-86478280D02*
X166978280Y-86478280D01*
X164000000Y-84000000D02*
X163626382Y-84000000D01*
X162250000Y-94950000D02*
X162250000Y-93652000D01*
X161299000Y-90235322D02*
X166017161Y-85517161D01*
X161299000Y-92701000D02*
X161299000Y-90235322D01*
%TO.N,Net-(J1-Pin_4)*%
X158951000Y-95901000D02*
X158000000Y-94950000D01*
X163110160Y-95901000D02*
X158951000Y-95901000D01*
X186907922Y-96907922D02*
X184750000Y-94750000D01*
X158494368Y-90437103D02*
X158701000Y-90230471D01*
X188874293Y-97124293D02*
X190027280Y-98277280D01*
X184750000Y-94750000D02*
X164261160Y-94750000D01*
X158701000Y-86701000D02*
X152500000Y-80500000D01*
X158000000Y-94950000D02*
X158000000Y-92950000D01*
X158000000Y-92950000D02*
X158250000Y-92700000D01*
X164261160Y-94750000D02*
X163110160Y-95901000D01*
X158701000Y-90230471D02*
X158701000Y-86701000D01*
X190027280Y-98277280D02*
X193996320Y-98277280D01*
%TO.N,Net-(J1-Pin_6)*%
X143123618Y-87250000D02*
X151774618Y-78599000D01*
X134000000Y-87250000D02*
X134000000Y-87008032D01*
X140750000Y-87250000D02*
X143123618Y-87250000D01*
X155599000Y-78599000D02*
X157500000Y-80500000D01*
X134000000Y-87008032D02*
X135508032Y-85500000D01*
X151774618Y-78599000D02*
X155599000Y-78599000D01*
X135508032Y-85500000D02*
X135862500Y-85500000D01*
%TO.N,Net-(J1-Pin_3)*%
X144149000Y-72851000D02*
X147351000Y-72851000D01*
X125500000Y-83491968D02*
X127508032Y-85500000D01*
X139250000Y-77750000D02*
X144149000Y-72851000D01*
X127000000Y-77750000D02*
X125500000Y-79250000D01*
X125500000Y-79250000D02*
X125500000Y-83491968D01*
X147351000Y-72851000D02*
X150000000Y-75500000D01*
X135500000Y-77750000D02*
X127000000Y-77750000D01*
X127508032Y-85500000D02*
X127862500Y-85500000D01*
%TO.N,Net-(J2-Pin_6)*%
X202250000Y-91697806D02*
X202250000Y-91290000D01*
X173875707Y-112624293D02*
X187250000Y-99250000D01*
X173374293Y-112624293D02*
X173875707Y-112624293D01*
X187250000Y-99250000D02*
X194697806Y-99250000D01*
X166093600Y-118420000D02*
X162000000Y-118420000D01*
X170996320Y-113517280D02*
X166093600Y-118420000D01*
X194697806Y-99250000D02*
X202250000Y-91697806D01*
%TO.N,Net-(J2-Pin_9)*%
X133181000Y-117138950D02*
X133181000Y-119219000D01*
X127000000Y-119145050D02*
X130127475Y-122272525D01*
X128101000Y-93094000D02*
X141906000Y-93094000D01*
X128101000Y-93094000D02*
X125799450Y-93094000D01*
X125799450Y-93094000D02*
X124399000Y-91693550D01*
X163000000Y-89750000D02*
X162887136Y-89637136D01*
X133181000Y-119219000D02*
X130127475Y-122272525D01*
X130000000Y-108695000D02*
X127000000Y-105695000D01*
X130000000Y-110000000D02*
X130000000Y-108695000D01*
X141906000Y-93094000D02*
X142750000Y-92250000D01*
X193057014Y-89355280D02*
X192662294Y-89750000D01*
X196564720Y-89355280D02*
X193057014Y-89355280D01*
X202250000Y-83670000D02*
X196564720Y-89355280D01*
X124422240Y-73000000D02*
X126090000Y-73000000D01*
X124399000Y-76226760D02*
X123649000Y-75476760D01*
X156299000Y-90451000D02*
X158000000Y-88750000D01*
X130542050Y-114500000D02*
X133181000Y-117138950D01*
X125250000Y-98750000D02*
X127000000Y-100500000D01*
X128101000Y-93094000D02*
X127000000Y-94195000D01*
X124399000Y-91693550D02*
X124399000Y-76226760D01*
X126090000Y-73000000D02*
X127340000Y-74250000D01*
X142750000Y-90250000D02*
X142951000Y-90451000D01*
X142951000Y-90451000D02*
X156299000Y-90451000D01*
X123649000Y-75476760D02*
X123649000Y-73773240D01*
X128185000Y-114500000D02*
X130542050Y-114500000D01*
X127000000Y-113315000D02*
X128185000Y-114500000D01*
X127000000Y-117595000D02*
X127000000Y-119145050D01*
X192662294Y-89750000D02*
X163000000Y-89750000D01*
X123649000Y-73773240D02*
X124422240Y-73000000D01*
X127000000Y-100500000D02*
X127000000Y-101815000D01*
%TO.N,Net-(J2-Pin_7)*%
X196163720Y-94836280D02*
X190172356Y-94836280D01*
X172297320Y-112711316D02*
X172297320Y-118970486D01*
X190172356Y-94836280D02*
X172297320Y-112711316D01*
X172297320Y-118970486D02*
X171031526Y-120236280D01*
X165250000Y-123500000D02*
X166250000Y-122500000D01*
X202250000Y-88750000D02*
X196163720Y-94836280D01*
X162000000Y-123500000D02*
X165250000Y-123500000D01*
X171031526Y-120236280D02*
X168373720Y-120236280D01*
X168373720Y-120236280D02*
X167750000Y-120860000D01*
%TO.N,Net-(J2-Pin_8)*%
X134620000Y-117595000D02*
X134620000Y-115239796D01*
X147695000Y-94195000D02*
X134620000Y-94195000D01*
X137000000Y-99500000D02*
X135377950Y-99500000D01*
X133500000Y-101377950D02*
X133500000Y-104500000D01*
X116293975Y-110228975D02*
X119380000Y-113315000D01*
X192695320Y-90304680D02*
X191000000Y-92000000D01*
X198703720Y-89756280D02*
X193223114Y-89756280D01*
X132894000Y-92394000D02*
X132194000Y-91694000D01*
X133519000Y-104594000D02*
X134620000Y-105695000D01*
X135377950Y-99500000D02*
X133500000Y-101377950D01*
X160599000Y-92000000D02*
X151500000Y-92000000D01*
X133519000Y-104519000D02*
X133500000Y-104500000D01*
X131432525Y-110432525D02*
X134620000Y-107245050D01*
X132194000Y-91694000D02*
X129000000Y-91694000D01*
X118000000Y-123835000D02*
X118000000Y-116556025D01*
X151500000Y-92000000D02*
X150500000Y-93000000D01*
X126500000Y-92339723D02*
X124800000Y-90639723D01*
X132000000Y-103000000D02*
X120565000Y-103000000D01*
X116293975Y-106706025D02*
X116293975Y-110228975D01*
X202250000Y-86210000D02*
X198703720Y-89756280D01*
X150500000Y-93000000D02*
X150500000Y-95500000D01*
X119380000Y-125215000D02*
X118000000Y-123835000D01*
X134620000Y-115239796D02*
X133425667Y-114045463D01*
X192695320Y-90284074D02*
X192695320Y-90304680D01*
X133500000Y-104500000D02*
X132000000Y-103000000D01*
X148500000Y-95000000D02*
X147695000Y-94195000D01*
X191000000Y-92000000D02*
X162000000Y-92000000D01*
X133000000Y-92394000D02*
X132894000Y-92394000D01*
X134620000Y-107245050D02*
X134620000Y-105695000D01*
X133519000Y-104594000D02*
X133519000Y-104519000D01*
X124800000Y-90639723D02*
X124800000Y-74250000D01*
X120565000Y-103000000D02*
X119380000Y-101815000D01*
X193223114Y-89756280D02*
X192695320Y-90284074D01*
%TO.N,Net-(J2-Pin_4)*%
X195262720Y-103357280D02*
X193996320Y-103357280D01*
X202250000Y-96370000D02*
X195262720Y-103357280D01*
%TO.N,Net-(J2-Pin_5)*%
X170572600Y-121561000D02*
X166941000Y-121561000D01*
X202250000Y-93830000D02*
X202250000Y-94237806D01*
X164500000Y-117500000D02*
X164000000Y-117000000D01*
X163120000Y-117000000D02*
X162000000Y-115880000D01*
X194031526Y-102456280D02*
X189677320Y-102456280D01*
X170996320Y-121137280D02*
X170572600Y-121561000D01*
X189677320Y-102456280D02*
X170996320Y-121137280D01*
X202250000Y-94237806D02*
X194031526Y-102456280D01*
X166941000Y-121561000D02*
X164500000Y-119120000D01*
X164000000Y-117000000D02*
X163120000Y-117000000D01*
%TO.N,Net-(J2-Pin_3)*%
X200983600Y-98910000D02*
X193996320Y-105897280D01*
X202250000Y-98910000D02*
X200983600Y-98910000D01*
%TO.N,Net-(J3-Pin_9)*%
X114000000Y-93500000D02*
X102250000Y-93500000D01*
X116523897Y-96023897D02*
X114000000Y-93500000D01*
X122476103Y-96023897D02*
X116523897Y-96023897D01*
X130979000Y-95296000D02*
X127704000Y-95296000D01*
X132080000Y-94195000D02*
X130979000Y-95296000D01*
X127704000Y-95296000D02*
X127127475Y-95872525D01*
%TO.N,Net-(J3-Pin_2)*%
X102000000Y-111000000D02*
X107250000Y-111000000D01*
X102495025Y-115855025D02*
X101195000Y-114555000D01*
X127800025Y-115855025D02*
X102495025Y-115855025D01*
X129540000Y-117595000D02*
X127800025Y-115855025D01*
X101195000Y-114555000D02*
X101195000Y-111805000D01*
X101195000Y-111805000D02*
X102000000Y-111000000D01*
%TO.N,Net-(J3-Pin_10)*%
X123467193Y-93039723D02*
X121427470Y-91000000D01*
X121427470Y-91000000D02*
X107250000Y-91000000D01*
%TO.N,Net-(J3-Pin_12)*%
X103873618Y-94250000D02*
X103482618Y-94641000D01*
X123359000Y-100714000D02*
X120531100Y-100714000D01*
X100349000Y-92901000D02*
X107250000Y-86000000D01*
X114067100Y-94250000D02*
X103873618Y-94250000D01*
X103482618Y-94641000D02*
X101017382Y-94641000D01*
X124460000Y-101815000D02*
X123359000Y-100714000D01*
X100349000Y-93972618D02*
X100349000Y-92901000D01*
X120531100Y-100714000D02*
X114067100Y-94250000D01*
X101017382Y-94641000D02*
X100349000Y-93972618D01*
%TO.N,Net-(J3-Pin_1)*%
X129740025Y-115255025D02*
X115744975Y-115255025D01*
X115744975Y-115255025D02*
X113989950Y-113500000D01*
X113989950Y-113500000D02*
X102250000Y-113500000D01*
X132080000Y-117595000D02*
X129740025Y-115255025D01*
%TO.N,Net-(J3-Pin_11)*%
X121920000Y-101815000D02*
X120937050Y-101815000D01*
X113773050Y-94651000D02*
X104039718Y-94651000D01*
X104039718Y-94651000D02*
X103648718Y-95042000D01*
X100851282Y-95042000D02*
X99948000Y-94138718D01*
X99948000Y-90802000D02*
X102250000Y-88500000D01*
X120937050Y-101815000D02*
X113773050Y-94651000D01*
X103648718Y-95042000D02*
X100851282Y-95042000D01*
X99948000Y-94138718D02*
X99948000Y-90802000D01*
%TO.N,Net-(J3-Pin_8)*%
X111440718Y-104000000D02*
X104123618Y-104000000D01*
X124460000Y-113315000D02*
X115746000Y-104601000D01*
X101017382Y-104641000D02*
X100349000Y-103972618D01*
X112041718Y-104601000D02*
X111440718Y-104000000D01*
X115746000Y-104601000D02*
X112041718Y-104601000D01*
X100349000Y-103972618D02*
X100349000Y-102901000D01*
X103482618Y-104641000D02*
X101017382Y-104641000D01*
X100349000Y-102901000D02*
X107250000Y-96000000D01*
X104123618Y-104000000D02*
X103482618Y-104641000D01*
%TO.N,Net-(J3-Pin_4)*%
X110750000Y-126750000D02*
X98500000Y-114500000D01*
X98500000Y-114500000D02*
X98500000Y-109376382D01*
X98500000Y-109376382D02*
X101876382Y-106000000D01*
X101876382Y-106000000D02*
X107250000Y-106000000D01*
X122925000Y-126750000D02*
X110750000Y-126750000D01*
X124460000Y-125215000D02*
X122925000Y-126750000D01*
%TO.N,Net-(J3-Pin_7)*%
X121920000Y-111342100D02*
X116288950Y-105711050D01*
X121920000Y-113315000D02*
X121920000Y-111342100D01*
X100851282Y-105042000D02*
X99948000Y-104138718D01*
X116288950Y-105711050D02*
X112584668Y-105711050D01*
X103831718Y-104859000D02*
X103648718Y-105042000D01*
X111732618Y-104859000D02*
X103831718Y-104859000D01*
X99948000Y-100802000D02*
X102250000Y-98500000D01*
X103648718Y-105042000D02*
X100851282Y-105042000D01*
X112584668Y-105711050D02*
X111732618Y-104859000D01*
X99948000Y-104138718D02*
X99948000Y-100802000D01*
%TO.N,Net-(SMX1-Pin_3)*%
X132991364Y-74250000D02*
X132420000Y-74250000D01*
X153500000Y-94950000D02*
X153500000Y-94200000D01*
X151000000Y-89750000D02*
X149250000Y-88000000D01*
X139901000Y-87401000D02*
X139901000Y-86766040D01*
X140500000Y-88000000D02*
X139901000Y-87401000D01*
X153500000Y-94200000D02*
X152000000Y-92700000D01*
X142000000Y-83250000D02*
X141250000Y-82500000D01*
X139390000Y-81000000D02*
X139390000Y-80648636D01*
X149250000Y-88000000D02*
X140500000Y-88000000D01*
X170996320Y-100817280D02*
X166679040Y-96500000D01*
X139901000Y-86766040D02*
X141292000Y-85375041D01*
X155050000Y-96500000D02*
X153500000Y-94950000D01*
X141292000Y-84949364D02*
X142000000Y-84241364D01*
X142000000Y-84241364D02*
X142000000Y-83250000D01*
X141292000Y-85375041D02*
X141292000Y-84949364D01*
X139390000Y-80648636D02*
X132991364Y-74250000D01*
X166679040Y-96500000D02*
X155050000Y-96500000D01*
%TD*%
M02*
