M48
; DRILL file {KiCad 9.0.3} date 2025-10-07T23:45:07-0500
; FORMAT={-:-/ absolute / metric / decimal}
; #@! TF.CreationDate,2025-10-07T23:45:07-05:00
; #@! TF.GenerationSoftware,Kicad,Pcbnew,9.0.3
; #@! TF.FileFunction,Plated,1,2,PTH
FMAT,2
METRIC
; #@! TA.AperFunction,Plated,PTH,ViaDrill
T1C0.400
; #@! TA.AperFunction,Plated,PTH,ComponentDrill
T2C0.650
; #@! TA.AperFunction,Plated,PTH,ComponentDrill
T3C0.800
; #@! TA.AperFunction,Plated,PTH,ComponentDrill
T4C0.900
; #@! TA.AperFunction,Plated,PTH,ComponentDrill
T5C1.000
; #@! TA.AperFunction,Plated,PTH,ComponentDrill
T6C1.090
%
G90
G05
T1
X115.25Y-85.25
X116.294Y-106.706
X118.0Y-116.656
X122.476Y-96.024
X123.467Y-93.04
X125.25Y-98.75
X126.5Y-83.25
X126.5Y-92.34
X127.127Y-95.873
X127.75Y-91.25
X129.0Y-91.694
X130.0Y-92.394
X130.0Y-110.0
X130.127Y-122.373
X130.183Y-123.683
X130.433Y-99.933
X130.433Y-111.433
X131.433Y-110.433
X132.75Y-87.25
X133.0Y-92.394
X133.426Y-114.045
X134.0Y-87.25
X134.5Y-83.25
X135.5Y-77.75
X137.0Y-99.5
X137.0Y-108.0
X137.0Y-111.25
X137.5Y-102.6
X139.25Y-77.75
X139.39Y-81.0
X139.39Y-83.0
X140.0Y-120.5
X140.75Y-87.25
X141.0Y-90.437
X141.0Y-97.5
X141.25Y-82.5
X141.25Y-84.0
X141.75Y-111.75
X142.0Y-102.6
X142.75Y-90.25
X142.75Y-92.25
X143.655Y-96.095
X146.358Y-107.857
X148.5Y-95.0
X148.85Y-118.5
X148.85Y-120.25
X149.241Y-109.759
X149.5Y-102.5
X149.528Y-99.972
X149.765Y-107.735
X150.5Y-95.5
X150.75Y-118.5
X150.75Y-121.25
X151.0Y-89.75
X151.265Y-109.235
X152.0Y-92.7
X152.278Y-102.722
X156.5Y-117.5
X157.25Y-102.75
X158.0Y-88.75
X158.25Y-92.7
X158.494Y-90.437
X160.599Y-92.0
X162.0Y-92.0
X162.887Y-89.637
X164.0Y-84.0
X164.5Y-115.0
X164.5Y-117.72
X164.5Y-119.12
X166.017Y-85.517
X166.25Y-122.5
X167.75Y-120.86
X172.5Y-114.0
X186.908Y-96.908
X188.0Y-98.0
X192.5Y-87.5
T3
X119.38Y-94.195
X119.38Y-101.815
X119.38Y-105.695
X119.38Y-113.315
X119.38Y-117.695
X119.38Y-125.315
X121.92Y-94.195
X121.92Y-101.815
X121.92Y-105.695
X121.92Y-113.315
X121.92Y-117.695
X121.92Y-125.315
X124.46Y-94.195
X124.46Y-101.815
X124.46Y-105.695
X124.46Y-113.315
X124.46Y-117.695
X124.46Y-125.315
X127.0Y-94.195
X127.0Y-101.815
X127.0Y-105.695
X127.0Y-113.315
X127.0Y-117.695
X127.0Y-125.315
X129.54Y-94.195
X129.54Y-101.815
X129.54Y-105.695
X129.54Y-113.315
X129.54Y-117.695
X129.54Y-125.315
X132.08Y-94.195
X132.08Y-101.815
X132.08Y-105.695
X132.08Y-113.315
X132.08Y-117.695
X132.08Y-125.315
X134.62Y-94.195
X134.62Y-101.815
X134.62Y-105.695
X134.62Y-113.315
X134.62Y-117.695
X134.62Y-125.315
X154.38Y-105.72
X154.38Y-108.26
X154.38Y-110.8
X154.38Y-113.34
X154.38Y-115.88
X154.38Y-118.42
X154.38Y-120.96
X154.38Y-123.5
X162.0Y-105.72
X162.0Y-108.26
X162.0Y-110.8
X162.0Y-113.34
X162.0Y-115.88
X162.0Y-118.42
X162.0Y-120.96
X162.0Y-123.5
X170.0Y-86.0
X170.0Y-88.54
X170.0Y-91.08
X170.0Y-93.62
X170.0Y-96.16
X170.0Y-98.7
X170.0Y-101.24
X170.0Y-103.78
X170.0Y-106.32
X170.0Y-108.86
X170.0Y-111.4
X170.0Y-113.94
X170.0Y-116.48
X170.0Y-119.02
X170.0Y-121.56
X170.0Y-124.1
X170.0Y-126.64
X170.004Y-80.923
X170.004Y-83.463
X195.0Y-74.205
X195.0Y-76.705
X195.4Y-80.92
X195.4Y-83.46
X195.4Y-86.0
X195.4Y-88.54
X195.4Y-91.08
X195.4Y-93.62
X195.4Y-96.16
X195.4Y-98.7
X195.4Y-101.24
X195.4Y-103.78
X195.4Y-106.32
X195.4Y-108.86
X195.4Y-111.4
X195.4Y-113.94
X195.4Y-116.48
X195.4Y-119.02
X195.4Y-121.56
X195.4Y-124.1
X195.4Y-126.64
X201.0Y-114.5
X203.5Y-114.5
T4
X168.25Y-72.35
X168.25Y-75.65
X170.75Y-72.35
X170.75Y-75.65
X173.25Y-72.35
X173.25Y-75.65
T5
X102.25Y-88.5
X102.25Y-93.5
X102.25Y-98.5
X102.25Y-103.5
X102.25Y-108.5
X102.25Y-113.5
X107.25Y-86.0
X107.25Y-91.0
X107.25Y-96.0
X107.25Y-101.0
X107.25Y-106.0
X107.25Y-111.0
X124.8Y-74.25
X127.34Y-74.25
X129.88Y-74.25
X132.42Y-74.25
X134.96Y-74.25
X137.5Y-74.25
X145.0Y-75.5
X147.5Y-80.5
X150.0Y-75.5
X152.5Y-80.5
X155.0Y-75.5
X157.5Y-80.5
X160.0Y-75.5
X162.5Y-80.5
T6
X202.25Y-84.07
X202.25Y-86.61
X202.25Y-89.15
X202.25Y-91.69
X202.25Y-94.23
X202.25Y-96.77
X202.25Y-99.31
X202.25Y-101.85
X202.25Y-104.39
X202.25Y-106.93
T2
G00X110.68Y-73.8
M15
G01X110.68Y-73.2
M16
G05
G00X110.68Y-77.6
M15
G01X110.68Y-77.0
M16
G05
G00X119.32Y-73.8
M15
G01X119.32Y-73.2
M16
G05
G00X119.32Y-77.6
M15
G01X119.32Y-77.0
M16
G05
M30
