%TF.GenerationSoftware,KiCad,Pcbnew,9.0.3*%
%TF.CreationDate,2025-10-07T23:40:21-05:00*%
%TF.ProjectId,MoistureSensor1,4d6f6973-7475-4726-9553-656e736f7231,1.0.0*%
%TF.SameCoordinates,Original*%
%TF.FileFunction,Soldermask,Top*%
%TF.FilePolarity,Negative*%
%FSLAX46Y46*%
G04 Gerber Fmt 4.6, Leading zero omitted, Abs format (unit mm)*
G04 Created by KiCad (PCBNEW 9.0.3) date 2025-10-07 23:40:21*
%MOMM*%
%LPD*%
G01*
G04 APERTURE LIST*
G04 Aperture macros list*
%AMRoundRect*
0 Rectangle with rounded corners*
0 $1 Rounding radius*
0 $2 $3 $4 $5 $6 $7 $8 $9 X,Y pos of 4 corners*
0 Add a 4 corners polygon primitive as box body*
4,1,4,$2,$3,$4,$5,$6,$7,$8,$9,$2,$3,0*
0 Add four circle primitives for the rounded corners*
1,1,$1+$1,$2,$3*
1,1,$1+$1,$4,$5*
1,1,$1+$1,$6,$7*
1,1,$1+$1,$8,$9*
0 Add four rect primitives between the rounded corners*
20,1,$1+$1,$2,$3,$4,$5,0*
20,1,$1+$1,$4,$5,$6,$7,0*
20,1,$1+$1,$6,$7,$8,$9,0*
20,1,$1+$1,$8,$9,$2,$3,0*%
G04 Aperture macros list end*
%ADD10C,3.200000*%
%ADD11RoundRect,0.250000X0.400000X0.625000X-0.400000X0.625000X-0.400000X-0.625000X0.400000X-0.625000X0*%
%ADD12RoundRect,0.250000X-0.337500X-0.475000X0.337500X-0.475000X0.337500X0.475000X-0.337500X0.475000X0*%
%ADD13RoundRect,0.150000X-0.512500X-0.150000X0.512500X-0.150000X0.512500X0.150000X-0.512500X0.150000X0*%
%ADD14RoundRect,0.250000X-0.625000X0.400000X-0.625000X-0.400000X0.625000X-0.400000X0.625000X0.400000X0*%
%ADD15RoundRect,0.250000X0.625000X-0.400000X0.625000X0.400000X-0.625000X0.400000X-0.625000X-0.400000X0*%
%ADD16RoundRect,0.250000X-0.400000X-0.625000X0.400000X-0.625000X0.400000X0.625000X-0.400000X0.625000X0*%
%ADD17RoundRect,0.250000X0.475000X-0.337500X0.475000X0.337500X-0.475000X0.337500X-0.475000X-0.337500X0*%
%ADD18R,1.700000X1.700000*%
%ADD19C,1.700000*%
%ADD20RoundRect,0.250000X-0.550000X-0.550000X0.550000X-0.550000X0.550000X0.550000X-0.550000X0.550000X0*%
%ADD21C,1.600000*%
%ADD22RoundRect,0.250000X-0.550000X0.550000X-0.550000X-0.550000X0.550000X-0.550000X0.550000X0.550000X0*%
%ADD23RoundRect,0.250000X0.620000X-0.620000X0.620000X0.620000X-0.620000X0.620000X-0.620000X-0.620000X0*%
%ADD24C,1.740000*%
%ADD25C,1.900000*%
%ADD26RoundRect,0.201923X-0.638077X-1.398077X0.638077X-1.398077X0.638077X1.398077X-0.638077X1.398077X0*%
%ADD27O,1.680000X3.200000*%
%ADD28RoundRect,0.250000X0.550000X-0.550000X0.550000X0.550000X-0.550000X0.550000X-0.550000X-0.550000X0*%
%ADD29RoundRect,0.102000X0.350000X0.600000X-0.350000X0.600000X-0.350000X-0.600000X0.350000X-0.600000X0*%
%ADD30RoundRect,0.102000X0.380000X0.600000X-0.380000X0.600000X-0.380000X-0.600000X0.380000X-0.600000X0*%
%ADD31RoundRect,0.102000X0.400000X0.600000X-0.400000X0.600000X-0.400000X-0.600000X0.400000X-0.600000X0*%
%ADD32O,1.354000X1.954000*%
%ADD33RoundRect,0.250000X0.550000X0.550000X-0.550000X0.550000X-0.550000X-0.550000X0.550000X-0.550000X0*%
%ADD34RoundRect,0.201923X1.398077X-0.638077X1.398077X0.638077X-1.398077X0.638077X-1.398077X-0.638077X0*%
%ADD35O,3.200000X1.680000*%
%ADD36R,2.000000X1.200000*%
%ADD37O,2.000000X1.200000*%
G04 APERTURE END LIST*
D10*
%TO.C,H2*%
X203000000Y-123000000D03*
%TD*%
D11*
%TO.C,R2*%
X136800000Y-80250000D03*
X133700000Y-80250000D03*
%TD*%
D12*
%TO.C,C2*%
X135212500Y-89250000D03*
X137287500Y-89250000D03*
%TD*%
D13*
%TO.C,U3*%
X135862500Y-84550000D03*
X135862500Y-85500000D03*
X135862500Y-86450000D03*
X138137500Y-86450000D03*
X138137500Y-85500000D03*
X138137500Y-84550000D03*
%TD*%
D14*
%TO.C,R4*%
X143750000Y-122237500D03*
X143750000Y-125337500D03*
%TD*%
%TO.C,R10*%
X162250000Y-94950000D03*
X162250000Y-98050000D03*
%TD*%
D15*
%TO.C,R9*%
X153500000Y-98050000D03*
X153500000Y-94950000D03*
%TD*%
D12*
%TO.C,C5*%
X160212500Y-101500000D03*
X162287500Y-101500000D03*
%TD*%
D16*
%TO.C,R1*%
X127700000Y-80250000D03*
X130800000Y-80250000D03*
%TD*%
D13*
%TO.C,U2*%
X127862500Y-84550000D03*
X127862500Y-85500000D03*
X127862500Y-86450000D03*
X130137500Y-86450000D03*
X130137500Y-85500000D03*
X130137500Y-84550000D03*
%TD*%
D17*
%TO.C,C6*%
X139750000Y-101575000D03*
X139750000Y-99500000D03*
%TD*%
D18*
%TO.C,SMX*%
X137500000Y-74250000D03*
D19*
X134960000Y-74250000D03*
X132420000Y-74250000D03*
X129880000Y-74250000D03*
X127340000Y-74250000D03*
X124800000Y-74250000D03*
%TD*%
D20*
%TO.C,U4*%
X154380000Y-105720000D03*
D21*
X154380000Y-108260000D03*
X154380000Y-110800000D03*
X154380000Y-113340000D03*
X154380000Y-115880000D03*
X154380000Y-118420000D03*
X154380000Y-120960000D03*
X154380000Y-123500000D03*
X162000000Y-123500000D03*
X162000000Y-120960000D03*
X162000000Y-118420000D03*
X162000000Y-115880000D03*
X162000000Y-113340000D03*
X162000000Y-110800000D03*
X162000000Y-108260000D03*
X162000000Y-105720000D03*
%TD*%
D14*
%TO.C,R3*%
X147000000Y-122200000D03*
X147000000Y-125300000D03*
%TD*%
D10*
%TO.C,H1*%
X203000000Y-75000000D03*
%TD*%
%TO.C,H4*%
X102000000Y-75000000D03*
%TD*%
D22*
%TO.C,U6*%
X134620000Y-105695000D03*
D21*
X132080000Y-105695000D03*
X129540000Y-105695000D03*
X127000000Y-105695000D03*
X124460000Y-105695000D03*
X121920000Y-105695000D03*
X119380000Y-105695000D03*
X119380000Y-113315000D03*
X121920000Y-113315000D03*
X124460000Y-113315000D03*
X127000000Y-113315000D03*
X129540000Y-113315000D03*
X132080000Y-113315000D03*
X134620000Y-113315000D03*
%TD*%
D17*
%TO.C,C8*%
X140000000Y-113287500D03*
X140000000Y-111212500D03*
%TD*%
D14*
%TO.C,R11*%
X158000000Y-94950000D03*
X158000000Y-98050000D03*
%TD*%
%TO.C,R5*%
X143750000Y-110162500D03*
X143750000Y-113262500D03*
%TD*%
D15*
%TO.C,R13*%
X113000000Y-84800000D03*
X113000000Y-81700000D03*
%TD*%
D23*
%TO.C,J4*%
X202250000Y-106930000D03*
D24*
X202250000Y-104390000D03*
X202250000Y-101850000D03*
X202250000Y-99310000D03*
X202250000Y-96770000D03*
X202250000Y-94230000D03*
X202250000Y-91690000D03*
X202250000Y-89150000D03*
X202250000Y-86610000D03*
X202250000Y-84070000D03*
%TD*%
D25*
%TO.C,On     Off*%
X173250000Y-72350000D03*
X170750000Y-72350000D03*
X168250000Y-72350000D03*
X173250000Y-75650000D03*
X170750000Y-75650000D03*
X168250000Y-75650000D03*
%TD*%
D26*
%TO.C,J6*%
X145000000Y-75500000D03*
D27*
X147500000Y-80500000D03*
X150000000Y-75500000D03*
X152500000Y-80500000D03*
X155000000Y-75500000D03*
X157500000Y-80500000D03*
X160000000Y-75500000D03*
X162500000Y-80500000D03*
%TD*%
D28*
%TO.C,C4*%
X195000000Y-76705113D03*
D21*
X195000000Y-74205113D03*
%TD*%
D10*
%TO.C,H3*%
X102000000Y-123000000D03*
%TD*%
D29*
%TO.C,5v in*%
X115500000Y-77380000D03*
D30*
X113480000Y-77380000D03*
D31*
X112250000Y-77380000D03*
D29*
X114500000Y-77380000D03*
D30*
X116520000Y-77380000D03*
D31*
X117750000Y-77380000D03*
D32*
X119320000Y-77300000D03*
X110680000Y-77300000D03*
X119320000Y-73500000D03*
X110680000Y-73500000D03*
%TD*%
D33*
%TO.C,C3*%
X203500000Y-114500000D03*
D21*
X201000000Y-114500000D03*
%TD*%
D34*
%TO.C,J5*%
X102250000Y-113500000D03*
D35*
X107250000Y-111000000D03*
X102250000Y-108500000D03*
X107250000Y-106000000D03*
X102250000Y-103500000D03*
X107250000Y-101000000D03*
X102250000Y-98500000D03*
X107250000Y-96000000D03*
X102250000Y-93500000D03*
X107250000Y-91000000D03*
X102250000Y-88500000D03*
X107250000Y-86000000D03*
%TD*%
D22*
%TO.C,U5*%
X134620000Y-117695000D03*
D21*
X132080000Y-117695000D03*
X129540000Y-117695000D03*
X127000000Y-117695000D03*
X124460000Y-117695000D03*
X121920000Y-117695000D03*
X119380000Y-117695000D03*
X119380000Y-125315000D03*
X121920000Y-125315000D03*
X124460000Y-125315000D03*
X127000000Y-125315000D03*
X129540000Y-125315000D03*
X132080000Y-125315000D03*
X134620000Y-125315000D03*
%TD*%
D17*
%TO.C,C7*%
X140000000Y-125287500D03*
X140000000Y-123212500D03*
%TD*%
D15*
%TO.C,R12*%
X118000000Y-84800000D03*
X118000000Y-81700000D03*
%TD*%
D14*
%TO.C,R6*%
X147000000Y-110200000D03*
X147000000Y-113300000D03*
%TD*%
D36*
%TO.C,U1*%
X195400000Y-126640000D03*
D37*
X195400000Y-124100000D03*
X195400000Y-121560000D03*
X195400000Y-119020000D03*
X195400000Y-116480000D03*
X195400000Y-113940000D03*
X195400000Y-111400000D03*
X195400000Y-108860000D03*
X195400000Y-106320000D03*
X195400000Y-103780000D03*
X195400000Y-101240000D03*
X195400000Y-98700000D03*
X195400000Y-96160000D03*
X195400000Y-93620000D03*
X195400000Y-91080000D03*
X195400000Y-88540000D03*
X195400000Y-86000000D03*
X195400000Y-83460000D03*
X195400000Y-80920000D03*
X170003680Y-80922720D03*
X170003680Y-83462720D03*
X170000000Y-86000000D03*
X170000000Y-88540000D03*
X170000000Y-91080000D03*
X170000000Y-93620000D03*
X170000000Y-96160000D03*
X170000000Y-98700000D03*
X170000000Y-101240000D03*
X170000000Y-103780000D03*
X170000000Y-106320000D03*
X170000000Y-108860000D03*
X170000000Y-111400000D03*
X170000000Y-113940000D03*
X170000000Y-116480000D03*
X170000000Y-119020000D03*
X170000000Y-121560000D03*
X170000000Y-124100000D03*
X170000000Y-126640000D03*
%TD*%
D22*
%TO.C,U7*%
X134620000Y-94195000D03*
D21*
X132080000Y-94195000D03*
X129540000Y-94195000D03*
X127000000Y-94195000D03*
X124460000Y-94195000D03*
X121920000Y-94195000D03*
X119380000Y-94195000D03*
X119380000Y-101815000D03*
X121920000Y-101815000D03*
X124460000Y-101815000D03*
X127000000Y-101815000D03*
X129540000Y-101815000D03*
X132080000Y-101815000D03*
X134620000Y-101815000D03*
%TD*%
D12*
%TO.C,C1*%
X129462500Y-89500000D03*
X131537500Y-89500000D03*
%TD*%
D14*
%TO.C,R7*%
X143750000Y-98450000D03*
X143750000Y-101550000D03*
%TD*%
%TO.C,R8*%
X147000000Y-98450000D03*
X147000000Y-101550000D03*
%TD*%
M02*
